<svg width="43" height="35" viewBox="0 0 43 35" fill="none" xmlns="http://www.w3.org/2000/svg">
    <path d="M8.52331 20.7495C6.60354 19.1264 4.72867 17.6435 2.97268 16.0311C0.664819 13.912 -0.472161 11.3676 0.184162 8.11549C0.683201 5.64286 1.60654 3.49074 3.94677 2.35772C5.43299 1.63811 7.0558 1.04321 8.67872 0.796769C11.7846 0.325247 14.9439 0.205716 18.0825 0.494088C22.0813 0.861378 25.5888 2.49233 28.7059 4.98081C29.091 5.28823 29.3485 5.75546 29.626 6.10007C30.9783 6.06023 32.3219 5.96425 33.6628 5.9921C37.3533 6.06871 39.9907 7.863 41.6873 11.0893C42.4556 12.5504 42.8661 14.136 42.9854 15.7711C43.0958 17.2839 42.5672 18.665 41.8365 19.9728C40.4199 22.5084 38.6003 24.7046 36.2867 26.4651C34.4558 27.8582 32.692 29.3229 30.6856 30.5032C26.9371 32.7085 22.9053 33.92 18.633 34.4075C16.9771 34.5965 15.2995 34.6298 13.6305 34.66C11.2842 34.7025 9.43586 33.7866 8.38583 31.6061C7.76693 30.3208 7.11832 29.0269 6.70909 27.6688C6.05112 25.485 6.44361 23.4135 7.87117 21.5837C8.09075 21.3023 8.31066 21.0215 8.52331 20.7495ZM37.3227 11.0022C37.317 11.3961 37.1236 11.858 37.8345 12.1188C37.8035 11.6504 37.7783 11.2688 37.7487 10.8217C37.4997 10.9382 37.397 10.9863 37.2943 11.0344C37.3481 10.602 37.5695 10.1183 36.9562 9.85839C36.565 11.0871 36.565 11.0871 36.9073 11.6845C37.0548 11.4425 37.1885 11.2228 37.3227 11.0022ZM31.808 10.0177C31.7964 9.79807 31.7847 9.5786 31.761 9.12887C31.3534 9.44079 31.0975 9.6366 30.8416 9.83241C30.633 9.35516 30.8274 9.08286 31.2907 8.94374C33.0402 8.41817 34.8227 8.31691 36.5787 8.79405C38.4007 9.28912 39.0164 10.2459 38.9426 12.1402C38.9303 12.4543 38.8852 12.7737 38.8052 13.0775C38.5016 14.2293 38.1622 15.3718 37.8652 16.5252C37.5554 17.7288 36.8896 18.7072 35.9572 19.4874C34.9832 20.3024 33.9736 21.08 32.9392 21.8173C29.9137 23.9731 26.5366 25.5104 23.2424 27.1789C20.5271 28.5542 17.6064 29.3669 14.5434 29.4976C13.1121 29.5586 11.6834 29.4365 10.3549 28.7903C8.73188 28.0009 8.17594 26.6771 8.79066 24.9007C9.10567 25.7489 9.4002 26.5424 9.69474 27.3358C9.75483 27.3201 9.81493 27.3046 9.87492 27.289C9.70685 26.1947 9.53889 25.1004 9.37081 24.006C10.1013 25.2457 10.0194 26.7307 10.8001 27.9633C10.9298 27.6681 10.996 27.3724 10.9502 27.095C10.8659 26.5869 10.6881 26.0945 10.5989 25.5869C10.4615 24.8043 10.3659 24.0144 10.2527 23.2276C10.3369 23.2127 10.4211 23.1977 10.5053 23.1827C10.7543 24.1886 11.0034 25.1946 11.3004 26.394C12.1401 24.9864 11.4205 23.774 11.548 22.589C10.7994 22.1248 10.0988 21.6904 9.35276 21.2278C8.2028 22.449 7.44444 23.7459 7.3631 25.453C7.26327 27.5485 8.28854 29.1915 9.26361 30.8757C9.44511 31.189 9.70508 31.4569 9.96352 31.7907C10.0707 31.5294 10.1248 31.3978 10.2025 31.2084C10.6378 32.1193 10.8495 33.1938 12.2119 33.0859C11.9505 32.3824 11.7113 31.7383 11.472 31.0942C12.8086 33.3032 12.8086 33.3032 13.5575 33.1954C13.5093 32.8893 13.4612 32.5834 13.413 32.2773L13.3862 32.3005C13.544 32.5156 13.7339 32.7145 13.8521 32.9493C14.0498 33.3425 14.3816 33.4258 14.7524 33.3714C15.694 33.2334 16.6486 33.2742 17.6321 33.1819C17.4093 32.6037 17.2045 32.0727 16.9998 31.5416C17.3034 31.7483 17.4545 32.0137 17.5799 32.2908C17.8507 32.8896 18.1701 33.2329 18.9513 33.0333C20.9886 32.5128 23.1304 32.3032 25.0856 31.5788C29.4909 29.9465 33.4405 27.5023 36.8098 24.1787C38.3257 22.6834 39.5956 20.9995 40.5857 19.1263C40.986 18.369 41.321 17.4971 41.3814 16.6555C41.5549 14.2383 40.8664 12.0289 39.471 10.0254C38.5376 8.68519 37.2723 7.83802 35.758 7.36759C33.7354 6.73912 31.6856 6.79514 29.631 7.28372C27.4787 7.79553 25.5689 8.88375 23.5585 9.73951C20.0123 11.2492 16.8522 13.3714 13.7875 15.6618C13.5819 15.8156 13.4032 16.0052 13.084 16.2939C13.8569 16.6698 14.4758 16.971 15.1909 17.3188C15.2606 16.8943 15.3037 16.6315 15.3558 16.3149C15.0527 16.3418 14.8139 16.3631 14.518 16.3894C15.3952 14.9884 18.473 13.1428 20.2001 12.9309C20.7838 14.2522 20.1849 15.6218 20.2752 17.0093C20.9636 16.8032 20.9441 16.2776 21.0269 15.8269C21.2178 14.7877 21.391 13.7453 21.5713 12.7041C21.6352 12.7144 21.6991 12.7246 21.763 12.7348C21.6664 13.8585 21.5698 14.9821 21.4565 16.2991C21.9253 15.9838 22.2065 15.7946 22.4507 15.6304C22.4812 14.4993 22.6101 13.4759 23.1659 12.5419C23.0762 13.4258 22.9865 14.3098 22.8708 15.4498C24.932 14.0771 27.0226 13.4648 29.1098 12.8327C29.4125 12.741 29.641 12.4047 29.9039 12.1814C30.6225 12.4477 30.8276 12.3971 31.0857 11.818C31.3564 11.2105 31.5921 10.5877 31.8431 9.97142C31.7172 10.6148 31.5914 11.2581 31.4112 12.1787C31.9036 11.853 32.1908 11.6631 32.4106 11.5177C32.5758 11.5967 32.7206 11.6659 32.9174 11.76C33.2029 10.8506 33.459 10.0357 33.7329 9.16321C32.8624 9.11082 32.1363 9.11984 31.808 10.0177ZM18.7798 18.5474C19.407 18.1041 19.6676 17.4932 19.742 16.7317C19.8557 15.5682 20.056 14.4131 20.2197 13.2546C20.1398 13.2122 20.0599 13.1698 19.98 13.1275C18.9124 13.7836 17.8448 14.4397 16.7496 15.1127C16.6576 15.9143 16.5532 16.6984 16.4831 17.4855C16.4441 17.923 16.671 18.1222 17.1231 18.069C17.2931 17.0838 17.4579 16.1285 17.6228 15.1734C17.6969 15.1841 17.771 15.1948 17.8451 15.2056C17.7638 16.2466 17.6824 17.2877 17.601 18.3303C17.9549 18.4501 18.2122 18.5554 18.4795 18.6181C18.574 18.6403 18.6928 18.5585 18.8006 18.5242L18.7798 18.5474ZM34.4176 15.1143C34.3951 14.6754 34.3725 14.2366 34.3481 13.7621C35.2497 14.3397 35.774 15.522 35.534 16.4004C35.2518 17.4332 34.7086 18.2708 33.7778 18.865C31.8434 20.0995 29.84 20.9365 27.4698 21.1153C23.2144 21.4362 19.2576 20.5152 15.399 18.8824C12.7727 17.7709 10.4552 16.1414 8.2094 14.4317C6.66231 13.2539 5.22595 11.9114 4.25044 10.1706C3.36595 8.59241 3.54965 6.97752 4.34212 5.49559C4.92734 4.40099 6.06311 3.83217 7.19833 3.40522C7.28242 3.46422 7.36651 3.52321 7.4506 3.58221C7.06757 4.79899 6.68455 6.01587 6.30152 7.23265C7.55385 6.70786 7.3576 5.21933 8.40245 4.37677C8.06323 5.37529 7.7775 6.21663 7.49375 7.05203C8.09416 7.32434 8.26652 7.01791 8.43151 6.59515C8.71702 5.86376 9.05052 5.15109 9.36388 4.4306C9.44907 4.46141 9.53426 4.49212 9.61945 4.52294C9.34627 5.35812 9.07309 6.19319 8.79726 7.03663C9.3783 7.2605 9.50488 6.94142 9.667 6.59933C10.0939 5.69855 10.5513 4.81208 10.9965 3.91989C11.0666 3.95368 11.1367 3.98736 11.2068 4.02115C10.8203 5.031 10.4337 6.04086 10.0235 7.11257C11.0041 7.28031 10.9175 6.48509 11.1857 6.09292C11.5003 5.63295 11.7381 5.12049 12.0092 4.63081C12.0751 4.66383 12.141 4.69685 12.2069 4.72975C11.8924 5.53907 11.5779 6.34838 11.2634 7.1577C11.3614 7.20822 11.4594 7.25874 11.5574 7.30937C12.2542 6.19055 12.9511 5.07173 13.648 3.9528C13.7263 3.99892 13.8048 4.04503 13.8832 4.09104C13.3666 5.09341 12.8502 6.09578 12.337 7.09177C12.4446 7.18951 12.4948 7.27239 12.5602 7.28691C12.7125 7.32071 12.8721 7.32159 13.0231 7.33523C13.4474 5.97383 14.1646 4.84609 15.0997 4.17326C14.5545 5.29582 14.0729 6.28708 13.5611 7.34074C16.4055 7.91429 19.2354 8.34157 21.8898 9.52885C23.5112 8.74782 25.1494 7.95854 26.8746 7.12754C25.6108 6.10624 24.2507 5.53478 22.8843 5.01438C21.504 4.48871 20.0738 4.09423 18.658 3.63988C20.4011 3.13765 25.7377 5.24431 27.1946 7.01252C27.378 6.95606 27.5738 6.91214 27.7558 6.83509C27.919 6.76597 28.067 6.66064 28.2413 6.55993C28.1214 6.40022 28.0579 6.29918 27.9781 6.21311C27.8701 6.09644 27.7582 5.98054 27.6334 5.8828C24.1036 3.11828 20.1366 1.59145 15.6131 1.63976C14.7769 1.64868 13.9395 1.61852 13.1048 1.65451C11.5599 1.7211 9.99753 1.70283 8.47785 1.94344C6.83468 2.20363 5.22727 2.70025 3.76582 3.56405C3.15957 3.92231 2.6787 4.37864 2.49764 5.0703C2.19617 6.22137 1.90306 7.37574 1.6487 8.53781C1.07867 11.1412 2.09105 13.2462 3.90637 14.9805C5.39942 16.4071 7.0394 17.6797 8.61158 19.0236C11.6564 21.6262 15.3315 22.8536 19.1048 23.8513C19.4311 23.5774 19.7468 23.3124 20.0626 23.0474C20.097 23.0861 20.1313 23.1247 20.1656 23.1635C19.9404 23.4101 19.7151 23.6568 19.4779 23.9165C20.2935 24.2691 20.293 24.2683 20.7324 23.8988C21.1207 23.5724 21.4258 23.1163 22.2199 22.8901C21.647 23.5333 21.2637 23.9638 20.8096 24.4736C21.855 24.8452 22.2319 23.9152 23.0619 23.6434C22.7919 24.0351 22.613 24.2946 22.4233 24.5698C22.9616 24.9721 23.3779 24.9275 23.8014 24.4504C24.3031 23.8853 24.8488 23.3585 25.3885 22.8284C25.5782 22.6421 25.8065 22.4949 26.0172 22.33C26.0557 22.381 26.0942 22.4321 26.1328 22.4832C25.4702 23.238 24.8076 23.9927 24.1435 24.7493C24.6472 25.1264 24.9167 24.8542 25.1684 24.5984C25.8662 23.889 26.5485 23.1643 27.2446 22.4532C27.4986 22.1938 27.7741 21.9556 28.0398 21.7077C28.0892 21.7623 28.1385 21.8168 28.1879 21.8714C27.7807 22.4228 27.3734 22.9743 26.9662 23.5256C30.428 22.0654 33.5118 20.1149 36.0572 17.4735C35.7453 15.8474 36.2063 14.1405 34.8746 12.8689C33.2711 12.9452 31.695 13.2027 30.0678 14.0187C30.8625 14.3384 31.2026 15.3476 32.187 14.7694C31.7652 15.6864 32.6835 16.1492 32.7997 16.9794C33.1217 16.6893 33.3496 16.484 33.5775 16.2786C33.3715 16.8249 33.1654 17.3712 32.9594 17.9174C33.5329 17.4671 33.9131 16.9179 34.3887 16.4699C34.903 15.9854 34.9194 15.5777 34.4176 15.1143ZM12.1706 15.5955C14.4966 13.361 17.3767 12.0122 20.1963 10.3244C19.9018 10.1791 19.7723 10.0936 19.6299 10.0484C15.8918 8.86042 12.04 8.32957 8.13885 8.1659C7.0001 8.11813 5.87061 8.41322 4.80957 8.893C5.64838 10.8217 8.60189 13.5168 12.1706 15.5955ZM19.8116 19.003C23.713 20.0182 27.5982 20.3318 31.4716 19.0647C31.7482 16.9399 30.5725 15.7652 29.1334 14.7255C28.7471 14.4465 28.3987 14.407 27.925 14.5405C24.8952 15.3943 22.2828 17.0009 19.8116 19.003ZM12.249 28.4505C15.9883 28.51 19.348 27.6148 22.7556 25.9204C22.3014 25.7511 22.091 25.6429 21.8676 25.5949C21.0949 25.429 20.3082 25.3211 19.5445 25.1229C18.1655 24.7649 16.8009 24.3522 15.427 23.9744C15.0037 23.858 14.583 23.765 14.2328 24.1924C13.2432 25.3998 12.381 26.6617 12.249 28.4505ZM4.48356 7.84033C4.89674 6.93151 5.22298 6.2141 5.54921 5.49658C5.60524 5.52487 5.66137 5.55316 5.7174 5.58155C5.48075 6.27453 5.24422 6.9675 4.92569 7.9002C5.35066 7.68117 5.6529 7.6279 5.71123 7.47898C6.13752 6.39131 6.51482 5.2846 6.94078 4.09093C4.84303 5.09308 4.25275 5.95204 4.48356 7.84033ZM35.8637 10.0022C35.7755 10.5143 35.6995 10.9561 35.6234 11.3979C35.7111 11.4267 35.7989 11.4556 35.8867 11.4844C36.4403 11.0189 36.3574 10.2623 36.6708 9.58718C36.1132 9.44586 35.6674 9.33282 35.1335 9.19755C34.914 9.97638 34.7173 10.6741 34.4952 11.4622C35.5945 11.4759 35.2264 10.4129 35.8637 10.0022ZM33.397 11.6072C33.4866 11.6372 33.5761 11.667 33.6657 11.6969C34.4997 11.0974 34.4765 10.1146 34.7715 8.96201C34.3419 9.16794 34.0004 9.22386 33.9541 9.37211C33.7254 10.1036 33.575 10.8597 33.397 11.6072ZM11.8507 22.6778C11.9765 23.4926 12.0682 24.0863 12.193 24.8943C12.7186 24.283 13.0797 23.8628 13.5031 23.3704C12.9144 23.1237 12.4853 22.9438 11.8507 22.6778ZM37.2485 15.0259C37.3922 14.4223 37.498 13.9777 37.6073 13.5187C37.068 13.2807 36.621 13.0834 36.0218 12.8189C36.4678 13.6213 36.8175 14.2503 37.2485 15.0259ZM16.0124 17.6339C16.1194 16.9702 16.2263 16.3066 16.3508 15.5344C15.4001 16.078 15.3118 16.4868 16.0124 17.6339Z" fill="#AF9775"/>
    <path d="M15.7592 30.9144C15.934 31.3594 16.1087 31.8044 16.2835 32.2494C16.2162 32.2737 16.149 32.2982 16.0816 32.3225C15.9215 31.8732 15.7612 31.4238 15.6011 30.9745C15.6537 30.9545 15.7064 30.9346 15.7592 30.9144Z" fill="#AF9775"/>
    <path d="M14.5264 31.2907C14.6306 31.5092 14.7347 31.7277 14.8389 31.9462C14.7916 31.9681 14.7444 31.99 14.6972 32.012C14.5966 31.7919 14.4961 31.5716 14.3955 31.3515C14.4392 31.3312 14.4828 31.311 14.5264 31.2907Z" fill="#AF9775"/>
    <path d="M13.4127 32.2774C13.2391 32.0142 13.0656 31.7512 12.8921 31.488C12.9713 31.4527 13.0506 31.4174 13.1298 31.3821C13.2154 31.6881 13.301 31.994 13.3863 32.3003C13.3861 32.3006 13.4127 32.2774 13.4127 32.2774Z" fill="#AF9775"/>
    <path d="M30.3958 10.9698C30.226 11.3859 30.0562 11.802 29.8862 12.2181C30.0561 11.802 30.2259 11.386 30.3958 10.9698Z" fill="#AF9775"/>
    <path d="M30.8732 9.77716C30.7037 10.193 30.5342 10.6089 30.3647 11.0248C30.5342 10.6088 30.7037 10.193 30.8732 9.77716Z" fill="#AF9775"/>
    <path d="M18.8003 18.5243C18.5557 17.4353 18.6803 16.2103 19.3039 14.8318C19.2413 15.4451 19.1964 16.0608 19.1113 16.6709C19.0241 17.296 18.8975 17.9156 18.7839 18.5425C18.7798 18.5474 18.8003 18.5243 18.8003 18.5243Z" fill="#AF9775"/>
</svg>
