<svg width="62" height="62" viewBox="0 0 62 62" fill="none" xmlns="http://www.w3.org/2000/svg">
    <g clip-path="url(#clip0)">
        <path d="M54.7285 33.2596V25.5597H56.5444C57.5473 25.5597 58.3604 24.7467 58.3604 23.7438V16.6011C58.3604 13.5971 55.9164 11.1532 52.9125 11.1532H46.303C49.2934 6.05384 45.4592 -0.264457 39.6263 0.00873043C37.0278 0.128734 34.7349 1.5649 33.4905 3.85442L30.8149 8.80654L28.1374 3.85042C26.8953 1.5649 24.6023 0.128734 22.0036 0.00873043C16.1713 -0.263246 12.3355 6.05215 15.3269 11.1532H9.08753C6.08356 11.1532 3.63965 13.5971 3.63965 16.6011V23.7439C3.63965 24.7468 4.45267 25.5598 5.45557 25.5598H7.27149V36.5767H1.82373C0.820834 36.5767 0.0078125 37.3897 0.0078125 38.3926V60.1841C0.0078125 61.187 0.820834 62 1.82373 62H9.08753C9.97938 62 10.7196 61.3565 10.8728 60.5089C14.4317 61.484 18.2894 62 22.0489 62H38.2639C42.2306 62 46.0202 60.1117 48.4095 56.9468C48.4464 56.9016 60.8693 41.706 60.9043 41.6593C61.6161 40.7106 61.9923 39.5809 61.9923 38.3926C61.9923 34.6707 58.2997 31.9944 54.7285 33.2596ZM7.27161 45.6564V58.3681H3.63965V40.2085H7.27161V45.6564ZM52.9126 14.7852C53.9139 14.7852 54.7285 15.5998 54.7285 16.6011V21.9279H36.4479V14.785C37.0213 14.7852 52.3573 14.7852 52.9126 14.7852ZM51.0967 25.5598V36.1985L43.4869 44.1103C42.8187 41.8573 40.7308 40.2085 38.2639 40.2085H36.448V25.5598H51.0967ZM36.6838 5.5846C37.3137 4.42562 38.4763 3.69748 39.7939 3.63657C42.6616 3.50385 44.6527 6.54742 43.2543 9.16716C42.5905 10.4107 41.3614 11.1531 39.9664 11.1531C39.2054 11.1531 34.384 11.1531 33.6752 11.1531L36.6838 5.5846ZM29.1841 14.7852C30.536 14.7852 31.499 14.7852 32.816 14.7852V40.2085H29.8748C29.6424 40.2085 29.4116 40.1911 29.1841 40.1583V14.7852ZM21.6582 3.63258C21.7173 3.63258 21.7767 3.63391 21.8361 3.63669C23.1537 3.6976 24.3165 4.42574 24.9442 5.58085L27.955 11.1533C25.1339 11.1533 23.4312 11.1533 21.6638 11.1533C20.2687 11.1532 19.0396 10.4109 18.3759 9.16728C17.0068 6.60276 18.8841 3.63258 21.6582 3.63258ZM7.27161 21.9279V16.6011C7.27161 15.5998 8.0862 14.7852 9.08753 14.7852C9.22182 14.7852 25.3365 14.7852 25.5522 14.7852V21.928H7.27161V21.9279ZM25.5521 25.5598V38.1211C23.4235 36.6413 20.8722 35.8364 18.2278 35.8364C15.5833 35.8364 13.0319 36.6413 10.9034 38.1211V25.5598H25.5521ZM58.0177 39.4546L45.5746 54.6765C45.5586 54.6961 45.543 54.716 45.5277 54.7363C43.822 57.0105 41.1066 58.3683 38.2639 58.3683H22.049C17.937 58.3683 14.5446 57.7708 10.9036 56.7473V45.6566V42.8457L12.169 41.732C15.6231 38.6923 20.8325 38.6923 24.2867 41.732C25.8392 43.0982 27.8403 43.8406 29.8748 43.8406H38.2639C39.2652 43.8406 40.0798 44.6552 40.0798 45.6565C40.0798 46.6578 39.2652 47.4724 38.2639 47.4724H25.3578C24.3549 47.4724 23.5419 48.2855 23.5419 49.2884C23.5419 50.2912 24.3549 51.1043 25.3578 51.1043H39.481C40.982 51.1043 42.4299 50.4765 43.4562 49.3816C43.9129 48.9067 54.8074 37.5796 55.1952 37.1763C55.1985 37.1729 55.2011 37.1692 55.2044 37.1658C55.2079 37.1622 55.2118 37.159 55.2152 37.1554C56.3295 35.959 58.3605 36.741 58.3605 38.3926C58.3605 38.7782 58.2421 39.1447 58.0177 39.4546Z" fill="#DF7545"/>
    </g>
    <defs>
        <clipPath id="clip0">
            <rect width="62" height="62" fill="white"/>
        </clipPath>
    </defs>
</svg>
