<svg width="377" height="290" viewBox="0 0 377 290" fill="none" xmlns="http://www.w3.org/2000/svg">
<path d="M112.024 320.281C118.718 323.066 128.374 321.881 134.772 321.111L136.194 320.933C145.732 319.807 155.329 317.911 164.57 316.074C168.302 315.304 172.212 314.534 176.063 313.823C187.319 311.749 198.87 310.682 210.008 309.734C212.022 309.556 214.095 309.378 216.169 309.201C227.484 308.134 240.635 306.238 252.128 299.957C256.985 297.29 261.132 294.091 264.509 290.417C266.109 288.639 267.53 286.684 268.834 284.787C271.026 281.706 273.099 278.803 276.002 276.61C279.971 277.144 283.94 277.618 287.968 278.092C293.063 278.684 298.158 279.277 303.193 279.929C313.383 281.173 323.987 282.417 334.354 283.543C338.856 284.017 344.602 284.017 349.105 279.573C351.593 277.084 353.192 273.825 353.607 270.388C354.969 270.388 356.095 269.974 356.924 269.085C359.946 266.063 359.175 258.537 358.761 254.093C358.702 253.264 358.583 252.553 358.583 252.019C357.635 235.072 357.931 217.236 359.649 194.068C360.775 179.076 361.367 163.195 355.621 148.915C358.939 144.649 361.782 140.619 364.329 136.471C368.062 130.427 371.024 124.324 373.275 118.339C375.17 113.302 377.125 106.666 375.941 99.8515C376 99.5552 375.881 99.1997 375.644 98.9626C372.564 95.7629 368.713 93.2741 363.026 90.9039C360.657 89.8966 358.109 89.0077 355.74 88.1782C353.37 87.3486 350.882 86.4598 348.571 85.5117C347.09 84.9191 345.787 84.2673 344.543 83.6748C339.271 80.949 333.821 77.4529 327.245 72.6533C325.942 71.7052 324.579 70.6386 323.276 69.6905C319.899 67.1425 316.463 64.476 312.731 62.2836C312.138 59.6763 311.605 57.6617 311.013 55.8247C309.176 49.8992 306.333 44.4477 303.371 38.8777C301.238 34.9076 299.106 30.9375 296.973 27.0266L293.241 20.153C292.885 19.4419 292.471 18.6716 292.115 17.9605C290.279 14.346 288.205 10.2574 284.592 8.12416C284.177 7.88714 283.703 7.65011 283.229 7.47235C279.971 6.10947 276.12 6.46501 272.862 8.36118C272.21 7.94639 271.44 7.5316 270.67 7.23533C264.331 4.62809 255.564 6.10947 250.173 8.89448C249.877 8.83522 249.58 8.89448 249.403 9.07224C249.343 9.1315 249.284 9.19075 249.225 9.25001C247.862 9.25001 246.559 9.36852 245.256 9.48703C244.604 9.54629 244.012 9.60554 243.36 9.6648C240.931 9.84256 238.384 10.0796 235.363 10.3759C227.78 2.90969 220.316 -4.31947 212.318 -11.0746C210.304 -12.793 207.875 -14.6892 205.031 -15.8743C203.669 -16.4668 202.247 -16.8224 200.885 -16.9409C196.738 -17.2964 193.065 -15.4595 189.451 -13.6226C180.032 -8.82288 170.553 -3.78617 161.253 1.4283C154.559 5.16139 146.206 9.84256 143.303 18.3753C138.919 17.9605 134.535 17.3087 130.211 16.6569L129.796 16.5977C120.436 15.2348 109.832 13.6942 99.524 15.2941C99.3463 15.2941 99.1686 15.3533 98.9316 15.3533C97.3321 15.5903 95.3179 15.8866 94.1331 17.3087C93.7777 17.7828 93.5999 18.2568 93.4222 18.7309C93.363 18.9086 93.3037 19.1457 93.1853 19.3234C92.4151 21.1011 91.2896 22.2862 89.8678 23.5898C86.1357 26.9674 82.8774 30.1079 80.4485 34.315C77.9012 38.6999 76.7164 43.3811 77.0718 47.8845C77.3088 50.8473 77.9604 53.7508 78.5528 56.5951C78.6713 57.1876 78.8491 57.8394 78.9675 58.432C79.0268 60.0319 79.1453 61.5725 79.2045 63.1724C79.2637 64.5353 79.323 65.8981 79.3822 67.261C65.7569 67.1425 53.2571 73.1866 41.1128 78.9936C38.5062 80.238 35.8404 81.5416 33.2338 82.7267C30.6272 83.9118 27.9614 85.0376 25.2956 86.1635C19.7269 88.5337 13.9214 91.0224 8.58969 93.9852C5.50919 95.7036 3.96893 97.7183 3.73196 100.089C3.67273 101.037 3.79123 101.985 4.14667 102.814C2.72488 103.229 1.5993 104.177 0.888428 105.481C-0.296387 107.614 -0.296387 110.814 0.888428 113.421C2.07324 116.028 3.79123 118.458 5.44995 120.769C6.04236 121.598 6.63477 122.428 7.22717 123.257L14.2768 133.627C16.7057 137.242 19.1938 140.915 21.5634 144.471C27.4874 153.359 33.5892 162.484 40.0464 171.254C48.4586 182.75 57.6409 191.579 68.1265 198.275C64.809 199.519 62.2617 201.889 60.9584 204.971C59.1219 209.355 60.1882 214.333 61.0768 218.303C61.9062 222.036 62.6763 225.888 63.4465 229.621C66.6455 244.968 69.9037 260.789 75.5316 275.544C82.3442 293.439 92.7706 307.068 105.685 314.949C105.922 315.423 106.218 315.837 106.455 316.193C106.455 316.252 106.455 316.252 106.455 316.311C106.455 316.667 106.692 317.022 106.988 317.141C107.107 317.2 107.166 317.2 107.285 317.2C108.766 318.504 110.247 319.511 112.024 320.281ZM113.564 310.03C113.268 309.912 112.912 309.912 112.616 310.09C112.379 310.267 112.202 310.504 112.202 310.86C112.083 313.171 111.965 315.778 113.149 318.03C111.609 317.378 110.365 316.548 109.358 315.541C109.417 315.363 109.417 315.186 109.417 315.008C109.358 314.593 109.18 314.297 108.825 314.119L108.766 314.06C108.884 310.682 109.595 307.305 110.839 304.164C111.017 303.631 110.78 303.097 110.306 302.86C110.069 302.742 109.773 302.742 109.536 302.86C109.299 302.979 109.121 303.157 109.003 303.394C108.588 304.401 108.292 305.349 107.995 306.356C108.41 302.149 109.299 298.061 110.839 294.15C111.965 291.187 113.386 288.343 115.104 285.676C115.282 285.38 115.519 285.025 115.756 284.728C116.882 282.951 118.126 281.173 118.54 278.921C118.599 278.447 118.422 278.032 117.948 277.855C117.652 277.736 117.296 277.736 117.059 277.914C116.763 278.032 116.585 278.329 116.585 278.625C116.171 280.758 114.927 282.654 113.683 284.491C113.09 285.38 112.498 286.269 112.024 287.158C110.543 289.765 109.358 292.609 108.351 295.513C106.87 300.016 106.04 304.757 105.922 309.675C105.626 309.675 105.33 309.734 105.093 309.912C104.796 310.149 104.619 310.564 104.678 310.978C104.678 311.156 104.737 311.334 104.796 311.512C90.9341 302.031 80.9225 286.21 74.2875 263.159C71.7402 254.271 69.726 245.086 67.8303 236.198C67.3564 234.124 66.9417 232.05 66.4678 229.976C66.1716 228.673 65.8161 227.251 65.4014 225.71C63.328 217.77 60.5437 207.163 66.1716 202.304C64.4536 204.911 63.5057 208.17 63.4465 211.666C63.328 217.651 65.4014 223.458 67.4156 229.028C67.7711 230.095 68.1857 231.102 68.5412 232.169L84.9508 279.632C85.0693 279.929 85.247 280.106 85.484 280.225C85.8394 280.343 86.2541 280.284 86.5503 279.988C86.8465 279.692 86.965 279.336 86.7873 278.921L71.9771 236.02C71.444 234.42 70.7923 232.761 70.2591 231.221C68.3634 226.065 66.4085 220.732 65.6976 215.399C64.9867 210.126 66.1123 203.371 71.207 199.934C77.2495 203.548 84.0622 206.926 92.0005 210.185C98.043 212.674 104.204 214.925 108.825 216.585C109.713 216.881 110.602 217.236 111.55 217.592C113.209 218.184 114.927 218.836 116.704 219.429C113.683 218.658 110.661 217.888 107.64 217.118C105.093 216.466 102.486 215.814 99.9387 215.162C99.4648 215.044 98.9908 215.281 98.8131 215.755C98.6354 216.288 98.8724 216.822 99.4055 217.059C99.4648 217.059 99.524 217.118 99.524 217.118C102.131 217.77 104.796 218.421 107.403 219.133C112.675 220.495 118.185 221.858 123.576 223.221C130.388 224.88 136.846 225.295 143.244 224.525C144.902 224.94 146.383 225.354 147.746 225.888C147.153 225.947 146.62 226.065 146.028 226.125C144.606 226.302 143.125 226.539 141.763 226.539C138.09 226.48 134.535 225.769 130.625 224.88L129.441 224.643C122.746 223.162 115.756 221.562 108.884 223.754C108.469 223.873 108.232 224.229 108.232 224.584C108.232 224.999 108.469 225.414 108.884 225.591C109.121 225.71 109.358 225.71 109.595 225.591C115.934 223.577 122.509 225.058 128.848 226.48C129.5 226.658 130.151 226.776 130.862 226.954C134.121 227.665 137.912 228.436 141.644 228.495C143.125 228.495 144.606 228.317 146.087 228.08C148.042 227.784 150.115 227.488 151.952 227.784C152.248 227.962 152.544 228.139 152.841 228.317C148.871 229.443 144.547 229.147 140.045 228.732C139.571 228.673 139.097 228.969 138.978 229.502C138.86 229.976 139.097 230.45 139.511 230.687C139.63 230.747 139.689 230.747 139.808 230.747C145.021 231.221 150.115 231.576 154.677 229.858C154.736 229.917 154.855 230.036 154.914 230.095C154.795 230.154 154.736 230.273 154.618 230.391C149.938 231.102 145.258 231.932 140.815 232.998C140.4 233.117 140.045 233.472 140.045 233.887C139.985 234.302 140.222 234.717 140.637 234.894C140.815 234.954 140.992 235.013 141.229 234.954C145.554 233.946 150.115 233.117 154.677 232.406C154.795 232.524 154.914 232.643 155.032 232.702C155.21 232.761 155.388 232.761 155.566 232.761C157.461 232.406 159.535 232.584 161.904 233.295C149.701 238.805 142.296 251.012 135.187 264.107C135.068 264.344 135.009 264.641 135.128 264.878C135.246 265.115 135.424 265.352 135.661 265.47C136.194 265.707 136.727 265.47 136.964 264.996C142.829 254.212 150.826 239.457 164.629 234.302C165.281 234.598 165.933 234.894 166.584 235.191C166.94 235.369 167.236 235.546 167.591 235.724C161.134 239.042 155.684 244.02 151.833 250.242C151.656 250.479 151.656 250.775 151.715 251.071C151.833 251.367 152.011 251.604 152.307 251.723C152.722 251.901 153.196 251.723 153.433 251.367C157.343 245.086 162.971 240.109 169.606 236.968C170.79 237.739 171.975 238.568 173.101 239.516C171.087 240.82 169.428 242.479 168.065 244.494C167.888 244.731 167.828 245.027 167.947 245.323C168.065 245.62 168.243 245.857 168.539 245.975C168.954 246.153 169.428 246.034 169.665 245.62C170.909 243.724 172.508 242.183 174.463 240.998C181.572 250.419 190.991 257.767 201.773 262.211L202.188 262.389C206.572 264.167 211.489 265.411 217.59 266.3C217.65 266.359 217.709 266.359 217.768 266.418C220.967 267.781 223.692 269.559 226.18 271.988C226.299 272.048 226.358 272.166 226.477 272.166C226.891 272.344 227.365 272.166 227.661 271.751C227.958 271.337 227.898 270.803 227.543 270.448C226.18 269.144 224.699 268.018 223.159 267.011C224.699 267.189 226.299 267.307 227.78 267.485C230.386 267.722 233.052 268.018 235.718 268.314L237.673 269.737C237.732 269.796 237.792 269.855 237.91 269.855C238.384 270.033 238.917 269.855 239.154 269.381C239.273 269.203 239.273 269.026 239.273 268.789C240.694 269.026 241.998 269.263 243.242 269.5C246.796 270.211 250.351 271.159 253.787 272.048C254.853 272.344 255.86 272.581 256.926 272.877C251.061 272.877 245.197 272.285 239.45 271.04C238.976 270.922 238.502 271.218 238.325 271.692C238.147 272.225 238.384 272.759 238.917 272.936C238.976 272.936 239.036 272.996 239.095 272.996C247.27 274.773 255.623 275.307 263.976 274.536L264.331 274.596C264.628 274.655 264.924 274.714 265.22 274.773C266.819 275.07 268.537 275.366 270.552 275.721C269.544 276.432 268.537 277.262 267.59 278.032C267.293 278.329 266.938 278.566 266.642 278.803C265.753 279.573 264.864 280.284 263.976 281.054C262.021 282.654 260.066 284.373 258.052 285.973C252.957 290.061 246.026 294.979 237.969 296.994C237.555 297.113 237.199 297.468 237.199 297.942C237.14 298.357 237.377 298.772 237.792 298.95C237.969 299.009 238.206 299.068 238.384 299.009C244.486 297.468 250.469 294.328 257.282 289.172C260.007 287.098 262.673 284.847 265.279 282.714L266.227 281.884C266.76 281.469 267.234 280.995 267.827 280.521C269.011 279.454 270.315 278.329 271.677 277.44C269.959 279.277 268.537 281.291 267.116 283.247C265.931 284.906 264.687 286.684 263.324 288.224C259.414 292.728 254.26 296.461 247.981 299.424C237.732 304.223 226.714 305.942 213.325 307.068C201.122 308.075 188.563 309.141 176.241 311.393C172.212 312.104 168.184 312.934 164.215 313.704C156.276 315.304 148.101 316.904 139.985 318.03C133.824 318.859 127.308 319.689 120.969 319.57C120.673 319.57 120.377 319.57 120.021 319.511C119.903 319.333 119.725 319.215 119.547 319.156C119.31 319.096 119.133 319.037 118.896 319.096C118.244 319.274 117.592 319.215 117 318.978C115.874 318.504 114.927 317.378 114.512 316.015C114.038 314.415 114.097 312.697 114.216 310.978C114.216 310.564 113.979 310.208 113.564 310.03ZM265.279 272.344C261.962 271.692 258.94 271.04 256.097 270.27L254.794 269.914C248.751 268.315 242.472 266.715 236.074 265.944C233.467 265.648 230.86 265.411 228.313 265.233C224.344 264.878 220.256 264.581 216.287 263.87C211.548 263.1 206.986 261.796 202.603 259.959C201.299 259.426 200.055 258.834 198.811 258.241C197.152 257.411 195.435 256.463 193.776 255.456C193.717 255.397 193.657 255.338 193.598 255.278C192.295 254.33 191.051 253.323 189.807 252.316C192.532 254.152 195.375 255.693 198.456 256.937C198.87 257.115 199.285 257.234 199.641 257.411C200.174 257.589 200.707 257.352 200.944 256.819C201.122 256.286 200.944 255.752 200.411 255.515C199.996 255.338 199.581 255.219 199.226 255.041C191.584 251.901 184.949 246.805 179.973 240.227C180.21 240.346 180.447 240.524 180.684 240.701C182.461 241.827 184.357 243.072 186.311 243.901C188.089 244.612 189.747 245.027 191.465 245.027C193.894 245.086 196.264 244.553 198.574 243.487C198.811 243.368 199.522 243.072 199.641 243.012C201.596 244.198 203.728 245.205 205.861 246.094C211.074 248.286 216.761 249.531 222.744 249.945L222.981 250.005C223.1 250.005 223.159 250.005 223.278 250.005C224.818 250.064 226.299 250.123 227.721 250.064C236.133 249.886 244.841 247.871 255.031 243.605C257.519 242.538 260.125 241.709 262.91 241.057C267.056 241.057 271.144 241.827 275.054 243.368C275.587 243.546 276.12 243.309 276.357 242.775C276.594 242.242 276.357 241.709 275.824 241.472C273.928 240.761 272.033 240.168 270.078 239.753C270.315 239.694 270.611 239.694 270.848 239.635C272.862 239.398 274.521 239.161 276.061 238.805C277.305 239.042 278.549 239.339 279.675 239.813C280.208 239.99 280.741 239.753 280.978 239.22C281.156 238.687 280.978 238.154 280.445 237.976C280.267 237.916 280.089 237.857 279.971 237.798C280.089 237.739 280.149 237.739 280.267 237.679C282.459 237.679 284.769 237.916 287.494 238.391C293.063 239.457 299.52 240.761 305.444 243.249C305.918 243.427 306.451 243.664 306.925 243.901C307.458 244.138 307.992 243.901 308.229 243.368C308.466 242.835 308.229 242.301 307.755 242.064C307.281 241.827 306.748 241.59 306.214 241.413C300.113 238.865 293.537 237.502 287.791 236.435C287.198 236.317 286.547 236.198 285.895 236.139C286.31 235.902 286.724 235.606 287.08 235.368C290.279 233.176 293.063 232.465 297.032 232.88C297.091 232.88 297.151 232.88 297.21 232.88C297.921 233.117 298.513 233.354 299.046 233.532C299.283 233.65 299.52 233.709 299.698 233.769C300.468 234.065 301.238 234.361 302.008 234.657C304.141 235.546 306.392 236.613 308.643 237.917C314.923 241.472 320.669 245.916 326.238 250.182C326.297 250.242 326.415 250.301 326.475 250.301C326.949 250.479 327.423 250.301 327.719 249.886C327.956 249.471 327.896 248.938 327.482 248.582C321.143 243.664 314.034 238.154 306.155 234.302C304.911 233.709 303.667 233.117 302.542 232.643C299.639 231.458 297.032 230.628 294.426 230.154C294.011 230.095 293.537 230.036 293.004 229.976C300.646 223.399 306.274 214.629 308.939 205.089C309.117 204.97 309.176 204.793 309.236 204.615C309.71 203.015 310.006 201.415 310.302 199.815C310.598 198.215 310.954 196.556 311.428 194.956C311.842 195.134 312.257 195.253 312.672 195.371C313.146 195.49 313.619 195.253 313.797 194.779C313.975 194.245 313.738 193.653 313.205 193.475C313.146 193.475 313.086 193.416 313.086 193.416C312.79 193.356 312.435 193.238 312.138 193.119C312.138 193.06 312.198 193.001 312.198 192.942C312.316 192.586 312.494 192.231 312.731 191.875C318.181 189.564 324.164 189.446 329.674 191.46C330.207 191.638 330.74 191.401 330.977 190.868C331.155 190.334 330.977 189.801 330.444 189.623C325.645 187.846 320.491 187.609 315.574 188.794C316.818 187.964 318.122 187.016 319.484 185.95C322.032 184.942 324.697 184.35 327.482 184.29C327.956 184.29 328.311 183.994 328.37 183.52C328.489 183.046 328.193 182.513 327.719 182.335C327.6 182.276 327.423 182.276 327.304 182.276C326.001 182.335 324.697 182.453 323.394 182.69C327.363 179.254 331.155 175.521 334.768 171.847C335.657 170.958 336.546 170.069 337.434 169.24C344.01 162.721 349.519 156.737 354.199 150.93C359.768 165.803 358.465 181.979 357.28 197.682C357.161 199.519 356.984 201.415 356.865 203.252C356.095 213.977 355.799 224.88 355.917 235.606C355.977 241.057 356.213 246.568 356.51 252.019C356.51 252.553 356.628 253.264 356.687 254.093C357.102 257.886 357.872 264.937 355.621 267.129C355.206 267.544 354.614 267.781 353.962 267.781C353.962 267.426 353.903 267.07 353.903 266.715C353.844 266.3 353.607 265.944 353.251 265.767C352.837 265.589 352.363 265.648 352.067 265.944C351.711 266.181 351.593 266.596 351.593 267.011C351.593 267.307 351.652 267.603 351.652 267.9C351.415 268.137 351.237 268.433 351.178 268.789C351.178 269.144 351.296 269.44 351.533 269.618C350.941 275.129 346.794 279.869 341.581 280.936C338.678 281.528 335.598 281.114 332.636 280.699C331.925 280.58 331.214 280.521 330.503 280.403L318.596 278.98C314.508 278.506 310.421 278.032 306.333 277.558C296.854 276.492 287.08 275.366 277.542 274.062C277.423 273.825 277.187 273.647 276.95 273.529C276.653 273.41 276.357 273.41 276.061 273.529C276.002 273.529 275.942 273.529 275.824 273.529C275.469 273.529 275.172 273.588 274.876 273.647C273.04 273.351 271.144 273.055 269.308 272.759C269.308 272.344 269.071 271.988 268.715 271.811C268.537 271.751 268.36 271.751 268.182 271.751C267.116 272.166 266.286 272.225 265.279 272.344ZM135.305 218.836C131.455 220.14 126.834 219.903 120.851 218.244C115.519 216.762 110.187 214.748 105.033 212.851L102.545 211.903C98.8131 210.54 95.5549 209.237 92.5336 207.993C84.9508 204.852 78.4936 201.711 72.8065 198.334C72.8065 198.275 72.8065 198.156 72.8065 198.097C72.7472 197.741 72.5103 197.504 72.2141 197.386C71.9771 197.267 71.6809 197.267 71.4439 197.445C71.4439 197.445 71.3847 197.445 71.3847 197.504C70.4961 196.971 69.6667 196.438 68.7781 195.904C58.9442 189.505 50.1766 180.913 41.9421 169.595C36.4328 162.07 31.1604 154.189 26.0657 146.604C24.0515 143.582 22.0373 140.619 20.0231 137.656L8.76743 121.124C8.29349 120.413 7.76031 119.643 7.16791 118.932C5.74615 116.917 4.26514 114.843 3.31729 112.71C2.60638 110.991 2.25098 108.384 3.25806 106.666C3.85046 105.718 4.73904 105.184 5.98309 105.066H6.04236C6.33856 105.303 6.63477 105.421 6.9902 105.599C7.16794 105.659 7.34567 105.718 7.52338 105.777C8.17502 105.955 8.82666 105.599 9.00439 105.007C9.18213 104.414 8.94516 103.881 8.41199 103.644C8.35275 103.644 8.35275 103.585 8.29349 103.585C8.17502 103.525 8.05652 103.525 7.93805 103.466C7.10867 103.111 6.63477 102.518 6.5163 101.629C6.27933 100.326 6.93097 98.5479 8.05652 97.5998C9.1821 96.6517 10.5446 95.9999 11.9072 95.3481L12.1441 95.2296C14.336 94.2222 16.5279 93.2149 18.7198 92.2075C19.7862 91.7335 20.9117 91.2002 21.9781 90.7262L41.6459 81.6601C43.1862 80.949 44.7264 80.2379 46.2667 79.5269C56.8115 74.6087 67.7118 69.5127 79.6784 69.6905C79.7377 70.2831 79.7376 70.8756 79.7969 71.4682C69.1928 72.4755 59.0627 76.2086 50.3543 82.4304C50.0581 82.6674 49.8804 82.9637 49.9396 83.3192C49.9989 83.6748 50.2358 84.0303 50.5912 84.1488C50.8875 84.2673 51.2429 84.2673 51.5391 84.0303C59.8921 78.0455 69.6668 74.4309 79.9154 73.4236C79.9746 74.4309 80.0338 75.4383 80.0931 76.3864C80.4485 81.3638 81.5741 84.9784 83.5883 87.8226C83.2328 90.4299 83.5883 92.9779 84.5361 95.3481C83.5291 96.4739 82.4627 97.5405 81.3964 98.5479C77.4273 101.155 74.1098 105.007 71.8586 109.747C69.963 113.717 68.7781 118.221 68.008 124.028C67.9488 124.561 67.8895 125.094 67.771 125.687C67.7118 126.102 67.6526 126.576 67.5933 127.05C63.7427 124.679 59.6551 122.606 55.5083 120.887C53.9088 120.235 52.3093 119.643 50.6505 119.05C50.1173 118.872 49.5842 119.109 49.3472 119.643C49.1695 120.176 49.4065 120.65 49.8804 120.887H49.9396C51.5391 121.42 53.1386 122.072 54.7381 122.724C59.0627 124.502 63.328 126.694 67.2971 129.242C67.2379 129.716 67.2379 130.19 67.1786 130.605C66.4085 130.131 65.6384 129.716 64.8683 129.42C64.7498 129.361 64.6906 129.361 64.5721 129.301C64.0389 129.124 63.5057 129.361 63.2688 129.894C63.0318 130.427 63.2688 130.961 63.8019 131.198C63.9204 131.257 64.0389 131.257 64.0981 131.316C65.1645 131.79 66.2308 132.383 67.1786 133.094C67.1786 133.39 67.2379 133.746 67.2379 134.042C67.2379 134.22 67.2379 134.338 67.2971 134.516V134.575C67.4156 135.286 67.5341 135.819 67.6526 136.353C68.1857 138.13 69.3113 139.434 70.9108 140.086C71.3847 140.441 71.9179 140.738 72.5103 140.975C73.8136 141.508 75.1761 141.686 76.4794 141.864L77.0718 141.923C78.0197 142.041 78.9675 142.278 79.7969 142.634C81.3964 143.286 82.8182 144.352 84.1807 145.834C82.9959 145.241 81.8111 144.649 80.567 144.115C78.1974 143.108 75.7093 142.338 73.2212 141.804C72.7473 141.686 72.2733 141.982 72.0956 142.456C71.9179 142.989 72.1548 143.523 72.688 143.7C72.7473 143.7 72.8065 143.76 72.8658 143.76C75.2354 144.293 77.5457 145.004 79.7969 145.952C82.285 146.959 84.7139 148.263 87.0243 149.804L87.3797 150.456C88.446 152.529 89.5124 154.663 90.8749 156.618C93.0076 159.522 95.6141 162.366 98.7539 165.032C99.2278 165.447 99.7017 165.803 100.176 166.217L100.413 166.395C100.413 166.395 100.472 166.514 100.531 166.514C96.799 164.44 93.126 162.247 89.6308 160.055C89.5716 159.996 89.5124 159.996 89.4531 159.996C88.9792 159.818 88.3868 159.996 88.1498 160.47C87.9129 160.944 88.0313 161.418 88.5053 161.714C93.126 164.618 97.9245 167.462 102.723 170.01C102.841 170.247 102.901 170.425 103.019 170.662L101.716 169.951L101.657 169.891C101.183 169.714 100.65 169.891 100.472 170.365C100.235 170.899 100.413 171.491 100.887 171.728L103.73 173.269C103.908 174.632 103.908 176.054 103.908 177.239C103.849 177.417 103.849 177.595 103.789 177.713C103.73 177.832 103.73 177.95 103.73 178.009C103.256 180.439 103.197 183.224 103.434 186.483C103.552 188.26 103.908 189.86 104.382 191.342L93.8369 185.001C93.7777 185.001 93.7184 184.942 93.7184 184.942C93.2445 184.764 92.6521 184.942 92.4152 185.475C92.1782 185.95 92.3559 186.424 92.7706 186.72L105.863 194.601C106.1 194.956 106.337 195.312 106.574 195.667C102.664 193.534 98.6354 191.579 94.7255 189.683C86.4911 185.712 78.0197 181.565 70.7331 175.758C70.6738 175.698 70.5554 175.639 70.4961 175.58C70.0222 175.402 69.5482 175.58 69.252 175.995C69.0151 176.409 69.0743 176.943 69.489 177.298C76.8348 183.224 85.4247 187.372 93.6592 191.342C100.413 194.601 107.344 197.978 113.564 202.245C119.488 206.867 124.583 210.6 129.263 213.859L126.301 213.088C125.827 212.97 125.353 213.207 125.175 213.681C124.997 214.214 125.234 214.807 125.768 214.985C125.827 214.985 125.886 215.044 125.886 215.044L133.884 217.059C133.943 217.177 134.061 217.236 134.18 217.355C134.476 217.533 134.772 217.71 135.009 217.947C135.246 218.303 135.305 218.54 135.305 218.836ZM130.211 222.451C129.026 222.273 127.782 222.095 126.597 221.858C126.715 221.858 126.834 221.858 127.012 221.918C128.019 222.095 129.144 222.273 130.211 222.451ZM210.896 237.917C210.778 237.917 210.659 237.916 210.541 237.976C210.541 237.976 210.482 237.976 210.422 238.035C209.593 238.272 208.764 238.687 207.816 239.161C206.572 239.813 205.446 240.05 204.024 239.931C203.787 239.931 203.61 239.872 203.373 239.872C202.543 239.753 201.833 239.694 200.825 239.931C199.641 240.227 198.634 240.702 197.626 241.176C196.56 241.709 195.494 242.183 194.368 242.42C191.939 242.894 189.392 242.716 187.022 241.768C186.904 241.709 186.785 241.709 186.726 241.65C185.127 240.998 183.646 239.99 182.283 239.102C182.224 239.042 182.105 238.924 181.987 238.865L181.928 238.805C181.098 238.272 180.387 237.739 179.617 237.324C177.899 236.317 176.004 235.369 173.871 234.361C173.871 234.302 173.871 234.302 173.871 234.243C173.812 233.887 173.575 233.591 173.279 233.472C173.042 233.354 172.805 233.354 172.568 233.472C172.508 233.472 172.39 233.532 172.331 233.591C172.271 233.472 172.153 233.295 172.094 233.176C171.975 232.939 171.798 232.761 171.561 232.702C171.205 232.524 170.731 232.643 170.435 232.939C169.783 232.702 169.132 232.406 168.48 232.169C168.48 232.109 168.48 232.05 168.421 231.991C168.302 231.754 168.125 231.517 167.888 231.398C167.71 231.339 167.473 231.28 167.295 231.339C167.177 231.398 166.999 231.398 166.881 231.458C166.821 231.458 166.821 231.458 166.762 231.458L165.696 231.043C163.8 230.332 161.904 229.561 160.009 228.791C159.298 228.495 158.646 228.199 157.935 227.902C157.817 227.843 157.758 227.843 157.639 227.784C157.639 227.725 157.639 227.665 157.639 227.606C157.58 227.251 157.343 226.895 157.047 226.776C156.81 226.658 156.513 226.717 156.217 226.836C156.099 226.895 156.04 226.954 155.921 226.954C151.478 224.88 146.916 222.451 142.473 219.725C141.703 219.251 140.874 218.718 140.104 218.244C140.045 217.829 139.748 217.473 139.334 217.296C139.097 217.177 138.801 217.177 138.564 217.236C130.566 212.081 123.102 206.452 114.808 200.171C114.453 199.875 114.097 199.638 113.742 199.341C112.735 198.571 111.668 197.801 110.72 196.971C109.417 195.43 108.469 193.653 107.758 191.638C107.225 189.031 106.929 186.364 107.048 183.816C107.225 187.431 108.292 191.045 110.247 194.245C110.365 194.423 110.484 194.542 110.72 194.66C111.076 194.838 111.55 194.719 111.846 194.364C112.142 194.008 112.202 193.534 111.965 193.179C108.469 187.312 108.114 179.846 111.135 173.624C111.254 173.624 111.431 173.684 111.55 173.743L111.609 173.802L111.905 173.98C112.024 174.098 112.142 174.158 112.202 174.276C112.32 174.395 112.438 174.513 112.616 174.572C112.794 174.632 112.972 174.632 113.149 174.632C116.763 176.587 120.673 178.483 124.82 180.202C131.277 182.868 138.327 185.238 146.265 187.372C148.398 187.964 150.649 188.498 152.9 189.031C153.433 189.386 153.966 189.742 154.499 190.097C149.642 189.327 144.843 188.201 140.163 186.72C139.63 186.542 139.097 186.838 138.86 187.372C138.682 187.846 138.919 188.379 139.393 188.616L139.452 188.675C145.613 190.631 152.07 191.994 158.528 192.705C162.26 194.956 166.229 197.208 170.613 199.519C170.968 199.815 171.264 200.052 171.561 200.23C171.62 200.289 171.738 200.349 171.798 200.349C171.975 200.408 172.212 200.467 172.39 200.408C178.847 203.667 185.956 206.985 194.842 210.837C198.634 212.437 202.425 214.096 206.157 215.636C208.349 216.585 210.482 217.473 212.674 218.421L213.74 219.014C213.858 219.133 213.977 219.251 214.095 219.31C214.155 219.37 214.273 219.37 214.332 219.37L218.005 221.325C218.124 221.444 218.242 221.562 218.42 221.621C218.479 221.621 218.538 221.681 218.598 221.681C218.657 221.681 218.775 221.74 218.775 221.74L219.19 221.977C219.842 222.332 220.434 222.629 221.145 222.925C221.5 223.103 221.856 223.28 222.271 223.458C222.389 224.406 222.093 225.651 220.789 226.48C220.493 226.658 220.316 227.014 220.316 227.369C220.375 227.725 220.612 228.08 220.967 228.258C221.263 228.376 221.619 228.376 221.915 228.199C223.218 227.369 224.048 226.065 224.225 224.584C224.522 224.762 224.818 224.94 225.114 225.117C225.588 225.532 226.003 226.006 226.417 226.539C227.187 229.917 225.173 233.65 221.856 234.954C220.138 235.665 218.301 235.309 216.406 234.954C216.05 234.894 215.695 234.835 215.339 234.776C213.503 234.48 211.666 234.48 209.83 234.717C207.875 235.013 206.039 235.546 204.202 236.02C202.188 236.613 200.115 237.205 197.982 237.383C194.664 237.739 191.228 237.205 188.029 235.902C186.845 235.428 185.719 234.835 184.653 234.124C184.593 234.065 184.534 234.065 184.475 234.065C184.001 233.887 183.409 234.065 183.172 234.539C182.935 235.013 183.053 235.487 183.527 235.783C184.712 236.554 186.015 237.205 187.319 237.739C190.636 239.102 194.072 239.694 197.567 239.398C199.937 239.22 202.306 238.568 204.558 237.917C207.46 237.087 210.185 236.317 213.088 236.435C214.155 236.494 215.162 236.613 216.169 236.791C219.308 237.205 222.567 237.679 225.529 234.894C226.654 233.828 227.484 232.584 228.017 231.221C228.076 231.872 228.195 232.584 228.55 233.295C228.55 233.354 228.609 233.354 228.609 233.413C226.536 235.487 224.048 237.976 221.441 239.102C219.664 239.872 217.946 239.339 216.109 238.746C215.221 238.45 214.273 238.154 213.266 237.976C212.555 237.739 211.726 237.739 210.896 237.917ZM257.341 240.168C255.741 240.761 254.083 241.413 252.542 242.064L251.18 242.598C240.339 247.042 228.609 248.642 218.124 247.042C216.702 246.686 215.399 246.331 214.155 245.857L214.036 245.797C213.325 245.56 212.555 245.264 211.844 244.968C211.37 244.79 210.956 244.553 210.541 244.375C209.712 243.961 209.238 243.368 209.119 242.716C209.001 242.064 209.297 241.353 209.889 240.761C210.896 240.227 211.785 239.931 212.792 239.99C213.799 240.05 214.806 240.405 215.873 240.761C217.057 241.176 218.242 241.59 219.545 241.59C223.811 241.65 227.661 237.679 230.446 234.835C230.683 234.598 230.92 234.361 231.157 234.124C231.394 233.828 231.512 233.532 231.453 233.176C231.394 232.88 231.216 232.643 230.979 232.465C230.979 232.346 230.92 232.228 230.86 232.109C230.505 231.458 230.446 230.687 230.386 229.858C230.327 229.443 230.327 229.028 230.268 228.673C230.268 228.613 230.268 228.554 230.268 228.495C230.268 228.436 230.268 228.376 230.268 228.376C231.571 229.917 232.697 231.695 233.467 233.532C233.585 233.769 233.763 233.946 234 234.065C234.356 234.243 234.83 234.124 235.126 233.828C235.422 233.532 235.481 233.117 235.303 232.761C233.289 228.08 229.676 224.169 225.173 221.799C224.64 221.443 224.107 221.088 223.455 220.673C223.337 220.495 223.218 220.377 223.1 220.258C223.218 220.199 223.929 219.903 223.929 219.903C225.706 220.199 227.365 220.673 228.846 221.325C231.631 222.451 233.882 224.169 235.54 226.302C235.659 226.421 235.777 226.539 235.955 226.599C236.37 226.776 236.844 226.658 237.14 226.243C237.436 225.888 237.436 225.414 237.14 225.058C235.54 223.043 233.526 221.384 231.038 220.14C231.453 220.258 231.927 220.436 232.341 220.614C232.697 220.732 233.052 220.91 233.348 221.088H233.408C233.882 221.266 234.415 221.088 234.652 220.555C234.889 220.021 234.652 219.488 234.178 219.192C233.822 219.014 233.408 218.836 233.052 218.718C231.927 218.244 230.742 217.888 229.557 217.651C235.126 215.399 240.813 212.851 246.5 210.066C248.929 209.237 251.476 208.407 254.083 207.578C255.149 207.459 256.156 207.341 257.222 207.222C264.331 206.452 271.677 206.274 279.023 206.63C279.497 206.63 279.971 206.333 280.089 205.8C280.208 205.326 279.971 204.852 279.556 204.674C279.438 204.615 279.319 204.615 279.201 204.615C273.869 204.378 268.597 204.378 263.324 204.674C263.798 204.556 264.213 204.437 264.628 204.259C271.677 202.245 279.141 200.408 286.843 198.808L287.435 198.689C293.181 197.504 299.165 196.319 304.793 194.245C305.859 193.83 306.925 193.416 308.051 192.882C308.229 202.126 304.97 211.666 298.928 219.844C295.373 224.643 287.968 233.117 278.194 235.961C276.653 236.08 275.054 236.257 273.336 236.554C271.322 236.494 269.367 236.672 267.412 237.146C267.116 237.205 266.879 237.383 266.76 237.679C266.76 237.739 266.701 237.739 266.701 237.798C265.516 237.976 264.509 238.094 263.561 238.272C262.495 238.45 261.488 238.746 260.303 239.102C259.592 239.161 258.881 239.22 258.23 239.279C257.933 239.339 257.637 239.516 257.459 239.813C257.4 239.99 257.341 240.109 257.341 240.168ZM218.361 217.414C218.124 217.414 217.887 217.414 217.65 217.414C217.413 217.414 217.235 217.473 217.057 217.592C216.82 217.473 216.524 217.355 216.287 217.236C216.998 215.992 217.531 214.688 217.946 213.385C218.124 212.851 217.827 212.318 217.354 212.14C217.117 212.022 216.82 212.022 216.583 212.14C216.346 212.259 216.169 212.437 216.109 212.733C215.695 214.037 215.162 215.281 214.51 216.466C213.562 216.051 212.674 215.696 211.726 215.281C210.067 214.57 208.408 213.918 206.749 213.266C205.091 212.614 203.432 211.963 201.833 211.252C201.181 210.955 200.529 210.718 199.878 210.422C193.183 207.578 185.482 204.2 177.662 200.408C179.143 200.526 180.684 200.526 182.165 200.408C182.639 200.349 182.994 200.052 183.053 199.638C183.112 199.163 182.876 198.689 182.461 198.512C182.342 198.452 182.165 198.452 181.987 198.452C179.025 198.689 176.122 198.452 173.16 197.741C172.923 197.682 172.686 197.741 172.449 197.86C172.271 197.801 172.153 197.682 171.975 197.623C171.561 197.445 171.146 197.208 170.731 196.971C170.553 196.853 170.435 196.675 170.317 196.497C172.212 196.793 174.108 196.912 176.004 197.09C176.537 197.149 177.129 197.208 177.662 197.208C183.527 197.741 189.807 198.156 196.205 197.564C196.679 197.504 197.034 197.208 197.093 196.734C197.152 196.26 196.916 195.786 196.501 195.608C196.323 195.549 196.205 195.549 196.027 195.549C189.925 196.082 183.823 195.667 178.61 195.253C177.899 195.193 177.188 195.134 176.478 195.075C173.93 194.897 171.324 194.66 168.836 194.186C168.776 193.949 168.836 193.653 169.072 193.238C169.428 192.527 169.665 192.468 170.731 192.527C171.087 192.527 171.442 192.586 171.798 192.645L172.094 192.705C172.923 192.823 173.693 192.942 174.523 193.119L175.648 193.297C175.944 193.356 176.181 193.297 176.418 193.119C183.883 194.008 191.762 194.719 200.351 195.134C216.05 195.964 232.341 196.141 248.751 195.608L240.754 199.223C240.398 199.4 240.161 199.756 240.161 200.171C240.161 200.586 240.398 200.941 240.754 201.119C240.991 201.237 241.287 201.237 241.524 201.119L248.159 198.097C243.775 201.948 239.332 206.215 235.896 211.37C232.756 212.496 229.379 213.74 225.469 215.162C225.292 215.103 225.114 215.162 224.996 215.222C225.173 214.866 225.292 214.451 225.351 214.037C225.469 213.563 225.233 213.148 224.818 212.97C224.522 212.851 224.225 212.851 223.929 213.029C223.633 213.148 223.455 213.385 223.396 213.681C223.159 214.748 222.626 215.696 221.915 216.525L221.204 216.762C222.567 214.57 223.811 212.259 224.818 209.948C224.936 209.711 224.936 209.415 224.818 209.178C224.699 208.941 224.522 208.704 224.285 208.644C223.752 208.407 223.218 208.644 222.981 209.178C221.737 211.963 220.138 214.748 218.361 217.414ZM253.016 193.119C234 193.89 215.221 193.712 197.271 192.586C176.833 191.342 160.483 188.912 145.909 184.942C138.504 182.927 131.929 180.676 125.827 178.187C116.408 174.276 108.351 169.654 101.775 164.499C101.479 164.262 101.242 164.025 100.946 163.847L100.59 163.551C98.9316 161.655 97.1544 159.759 95.4956 157.922C94.6071 156.974 93.7184 155.966 92.8298 155.018C92.7113 154.9 92.5929 154.84 92.4744 154.781C91.2896 153.004 90.2825 151.167 89.4531 149.567C89.4531 149.33 89.3347 149.152 89.1569 148.974C88.6237 147.967 88.2091 147.078 87.6759 146.189C86.3134 143.7 84.9508 141.864 83.3513 140.56C83.2328 140.323 82.9959 140.204 82.8774 140.145H82.8182L82.6997 140.086C82.285 139.79 81.9296 139.553 81.5149 139.316C81.2779 139.197 80.9817 139.079 80.7448 138.96C79.0268 138.249 77.4865 138.308 75.9463 138.367C74.8799 138.427 73.8136 138.486 72.688 138.249C72.3918 138.19 72.1548 138.13 71.9179 138.012C71.7401 137.953 71.5032 137.834 71.3255 137.716C70.7923 137.123 70.3184 136.412 69.9037 135.642C69.7852 135.286 69.726 134.931 69.6667 134.575C69.8445 134.516 69.963 134.397 70.0814 134.22C70.3776 133.805 70.3184 133.272 69.963 132.916C69.8445 132.797 69.6667 132.62 69.5482 132.501C69.5482 131.849 69.6075 131.138 69.6667 130.368C69.9037 130.309 70.1407 130.131 70.2591 129.835C70.4961 129.361 70.3776 128.887 69.963 128.59L69.9037 128.531C69.963 128.176 70.0222 127.82 70.0222 127.464C70.0815 126.931 70.1407 126.457 70.1999 126.042C70.7331 121.065 71.6217 117.154 72.8658 113.776C75.6501 106.192 80.8632 100.622 87.1427 98.4886C87.3204 98.4886 87.4982 98.4294 87.6759 98.3108C87.7351 98.3108 87.7944 98.2516 87.8536 98.2516C87.8536 98.3108 87.9129 98.3701 87.9129 98.4294C89.2754 101.214 89.927 104.355 90.5194 107.377C91.0526 110.043 91.5858 112.828 92.6521 115.436C94.7848 120.591 98.1615 125.331 102.368 129.064C102.901 129.538 103.434 130.012 103.967 130.487C107.818 133.864 111.194 136.768 113.327 141.093L110.839 140.027C110.247 139.79 109.595 140.027 109.299 140.678C109.062 141.271 109.299 141.982 109.891 142.219L114.63 144.234C114.749 144.352 114.867 144.471 115.045 144.53C115.223 144.589 115.341 144.649 115.519 144.589C118.363 145.774 121.265 147.019 124.168 148.204C124.583 148.559 124.938 148.856 125.353 149.093C125.412 149.152 125.471 149.152 125.531 149.211C125.649 149.27 125.768 149.27 125.827 149.27C125.945 149.389 126.064 149.507 126.242 149.567C126.478 149.685 126.834 149.685 127.071 149.507C127.13 149.507 127.189 149.448 127.189 149.389C134.121 152.233 139.926 154.544 145.376 156.618L145.495 156.677C145.613 156.796 145.732 156.914 145.909 156.974C146.087 157.033 146.265 157.092 146.443 157.033C152.663 159.403 158.291 161.359 163.741 163.136C164.629 163.432 165.577 163.788 166.525 164.144C170.376 165.566 174.7 167.166 178.61 166.336C178.729 166.395 178.788 166.395 178.906 166.455H178.966C180.743 167.166 182.046 168.291 183.468 169.477C184.416 170.306 185.423 171.136 186.548 171.847C187.022 172.143 187.496 172.38 187.97 172.558C190.991 173.802 194.546 173.506 197.449 171.787C198.278 173.447 199.878 174.75 202.247 175.758C204.558 176.706 207.223 177.18 209.415 177.595L210.185 177.713C212.733 178.187 216.109 178.661 219.308 178.602C220.73 179.076 222.152 179.491 223.633 180.024C223.278 180.083 222.981 180.38 222.863 180.735C222.744 181.209 222.981 181.742 223.396 181.92C223.455 181.979 223.574 181.979 223.633 181.979C229.261 182.69 234.77 183.994 239.865 185.772C241.701 186.424 243.242 187.016 244.782 187.609C245.552 187.964 246.322 188.26 247.033 188.616C244.426 188.142 241.761 187.964 239.273 187.846C238.562 187.786 237.91 187.786 237.199 187.727C230.505 187.253 223.574 187.135 216.583 187.372C216.109 187.372 215.754 187.668 215.695 188.142C215.636 188.616 215.873 189.09 216.287 189.327C216.406 189.386 216.583 189.386 216.702 189.386C223.278 189.209 229.853 189.327 236.251 189.683C237.021 189.742 237.792 189.742 238.621 189.801C242.412 189.979 246.737 190.216 250.232 191.638C251.417 192.112 252.246 192.586 253.016 193.119ZM291.167 163.966C290.812 163.847 290.456 163.907 290.16 164.144L245.315 205.267C245.197 204.971 245.078 204.556 245.078 204.082C247.389 201.771 249.817 199.697 251.891 197.919C252.898 197.09 253.846 196.201 254.794 195.371L255.682 195.312C256.215 195.312 256.571 194.956 256.689 194.482C256.749 194.245 256.749 193.949 256.63 193.712C260.54 190.157 263.68 187.075 266.464 184.053C267.767 182.631 269.011 181.15 270.315 179.728C274.047 175.461 277.897 171.076 282.222 167.225C287.554 162.425 293.537 158.277 300.053 154.781C300.172 154.722 300.29 154.603 300.409 154.485C304.378 152.944 307.577 152.292 310.48 152.411C313.086 152.529 316.048 152.529 317.826 150.87C318.892 149.863 319.484 148.441 319.544 146.426C319.603 144.589 319.366 142.752 318.833 140.915L326.238 133.864C326.475 133.627 326.593 133.272 326.534 132.916C326.475 132.56 326.238 132.264 325.942 132.146C325.586 132.027 325.231 132.086 324.934 132.323L318.122 138.842C317.411 137.182 316.463 135.642 315.337 134.16L324.342 124.265C324.579 124.028 324.638 123.731 324.579 123.435C324.52 123.139 324.283 122.843 323.987 122.724C323.572 122.546 323.157 122.665 322.861 122.961L314.093 132.62C313.916 132.442 313.738 132.205 313.501 132.027L317.589 127.82C317.826 127.583 317.885 127.287 317.826 126.99C317.766 126.694 317.529 126.398 317.233 126.279C316.818 126.102 316.404 126.22 316.108 126.516L312.198 130.605C312.138 130.605 312.079 130.605 312.02 130.605C311.191 129.835 310.243 129.183 309.354 128.531C310.006 127.998 310.48 127.464 310.894 126.753C311.072 126.516 311.072 126.22 311.013 125.924C310.894 125.628 310.717 125.391 310.42 125.272C310.006 125.094 309.532 125.272 309.295 125.628C308.821 126.339 308.288 126.931 307.577 127.346C306.866 126.931 306.096 126.516 305.326 126.161C306.866 124.857 308.466 123.672 310.124 122.665C310.42 122.487 310.598 122.132 310.598 121.776C310.539 121.42 310.302 121.065 309.947 120.887C309.65 120.769 309.295 120.769 308.999 120.946C307.222 122.072 305.444 123.376 303.726 124.857L308.288 119.821C308.525 119.584 308.584 119.287 308.525 118.991C308.466 118.695 308.229 118.398 307.932 118.28C307.636 118.161 307.281 118.161 307.044 118.339C311.783 110.517 316.226 101.214 316.878 91.378C317.055 88.2967 316.937 85.2747 316.582 82.2526C316.818 82.2526 316.996 82.2526 317.233 82.1341C317.47 81.9564 317.648 81.7193 317.707 81.3638L318.24 74.4902C318.299 74.0161 318.299 73.4828 318.359 72.9495C318.418 71.5867 318.536 70.1645 318.833 68.8609C319.247 69.1572 319.603 69.4535 320.017 69.7497C319.366 70.4608 319.129 71.4089 318.951 72.0607C318.596 73.6606 318.477 75.3198 318.299 76.9196C318.24 77.6307 318.181 78.3418 318.063 79.0528C318.003 79.5269 318.24 79.8824 318.655 80.0602C318.951 80.1787 319.307 80.1787 319.603 80.0009C319.721 79.9417 319.781 79.8824 319.899 79.7639C319.899 79.8232 319.899 79.8232 319.899 79.8824C319.899 80.238 319.84 80.5935 319.84 80.949C319.425 87.4079 319.84 93.9852 320.195 100.326C320.195 100.681 320.432 101.037 320.788 101.155C321.084 101.274 321.498 101.214 321.795 101.037C322.091 100.859 322.209 100.503 322.209 100.148C321.972 95.6443 321.676 90.9632 321.676 86.4005C321.676 84.0303 321.795 81.8378 321.972 79.7047L322.032 79.2306C322.091 78.401 322.15 77.6307 322.328 76.8011C322.506 75.9123 322.683 74.9642 323.216 74.3717C323.631 73.8976 324.638 73.5421 325.349 73.7791C326.06 74.3124 326.712 74.7865 327.423 75.3198C332.754 79.1714 337.316 82.1341 341.877 84.5636C344.306 85.8672 346.913 87.1116 349.875 88.3559C352.955 89.6596 356.036 90.7262 358.405 91.5557C359.886 92.089 361.664 92.7408 363.382 93.4519C368.062 95.4073 371.261 97.422 373.867 100.089C375.23 107.851 372.268 115.554 369.365 122.191C366.403 129.005 362.374 135.997 357.398 142.871C356.51 144.056 355.621 145.3 354.673 146.485C354.614 146.426 354.555 146.426 354.495 146.426C354.022 146.248 353.488 146.367 353.133 146.722C352.837 147.078 352.718 147.552 352.896 147.967C352.955 148.085 353.014 148.263 353.074 148.382V148.441C346.735 156.44 339.271 164.381 328.844 174.158L327.6 175.343C324.461 178.306 321.202 181.387 317.766 184.113C317.055 184.587 316.226 185.12 315.456 185.653C314.153 186.424 312.909 187.312 311.724 188.379C310.954 188.853 310.184 189.268 309.413 189.683C309.117 189.623 308.821 189.683 308.525 189.801C308.288 189.92 308.169 190.097 308.051 190.334C304.319 192.112 299.994 193.593 294.899 194.838C291.523 195.667 288.028 196.438 284.71 197.208C275.469 199.282 265.931 201.474 256.63 204.378C256.393 204.437 256.156 204.556 255.919 204.615C255.741 204.674 255.564 204.733 255.386 204.793C253.49 204.852 251.772 204.971 250.173 205.267C249.758 205.326 249.343 205.445 248.929 205.504C248.633 205.563 248.336 205.622 248.04 205.682C247.981 205.682 247.922 205.741 247.862 205.741L291.523 165.684C291.76 165.447 291.878 165.092 291.819 164.736C291.7 164.381 291.464 164.084 291.167 163.966ZM135.424 150.219C132.699 149.152 129.974 148.026 127.249 146.9L127.13 146.841C123.635 137.775 116.941 130.605 110.957 124.205C110.839 124.087 110.72 124.028 110.602 123.968C110.128 123.791 109.654 123.968 109.358 124.324C109.121 124.679 109.121 125.154 109.476 125.509C114.867 131.257 120.969 137.775 124.464 145.656C122.095 143.286 120.317 140.323 118.777 137.716C116.289 133.509 113.979 130.427 111.313 127.702C110.069 126.457 108.766 125.272 107.462 124.028C102.012 118.991 96.4435 113.776 95.5549 106.192C95.4957 105.836 95.3179 105.54 94.9625 105.421C94.6071 105.303 94.2516 105.362 93.9554 105.54C93.6592 105.777 93.5407 106.073 93.6 106.429C94.5478 114.665 100.531 120.235 106.277 125.628C106.988 126.339 107.758 126.99 108.469 127.702C111.787 130.842 114.571 134.457 117.415 139.316C118.363 140.856 119.31 142.515 120.436 144.056C119.073 143.523 117.77 142.93 116.408 142.397C114.808 138.071 112.202 134.338 108.351 131.02L107.64 130.427C103.552 126.931 99.7017 123.613 96.9767 118.932C94.3701 114.488 93.363 109.806 92.2374 104.888C92.1189 104.236 91.9412 103.585 91.8228 102.933C91.2896 100.503 90.6379 98.5479 89.7493 96.8887C89.8086 96.6517 89.7493 96.4147 89.6901 96.2369C89.5716 95.9406 89.3939 95.7629 89.0977 95.6444H89.0384L88.446 94.6963C87.5574 92.326 87.4389 89.8373 88.2091 87.4671C88.2683 87.2893 88.2683 87.0523 88.2091 86.8746C88.2683 86.6375 88.2091 86.4598 88.1498 86.2227C88.0313 85.9265 87.7944 85.6302 87.4982 85.5117C87.3797 85.4524 87.2612 85.4524 87.0835 85.4524C83.7068 82.3711 83.2328 77.8085 82.9959 72.5348C82.9366 71.2904 82.8774 70.1053 82.8182 68.9202C82.9366 68.6239 82.8774 68.3276 82.7589 68.0313C82.4627 63.9427 82.048 60.5652 81.3964 57.3061C81.2187 56.2988 80.9817 55.2914 80.7448 54.2841C79.9154 50.4918 79.086 46.9364 79.7376 43.2033C80.5078 38.6407 82.9959 34.0188 86.965 29.7524C87.9721 28.6858 89.0977 27.6784 90.164 26.7303C90.8749 26.0785 91.645 25.4267 92.3559 24.7157C93.5999 23.5306 94.2516 22.4047 94.9625 21.1603C94.7255 23.8861 92.1782 26.9081 90.6972 28.6858C90.2825 29.1598 89.8678 29.6931 89.4531 30.1672C87.5574 32.4189 85.5432 34.7298 84.1807 37.5148C84.0622 37.7518 84.0622 38.0481 84.1215 38.2851C84.24 38.5222 84.4177 38.7592 84.6546 38.8184C85.1878 39.0555 85.7209 38.8184 85.9579 38.3444C87.202 35.8557 89.0384 33.7225 90.7564 31.7078C92.1189 30.1079 93.5407 28.4487 94.7255 26.6118C96.6805 23.5306 97.3321 20.9233 96.562 18.7901C97.8653 17.7828 99.8795 17.605 101.775 17.4272C102.071 17.4272 102.427 17.368 102.723 17.368C104.915 17.131 107.225 17.0717 109.713 17.0717C116.645 17.131 123.635 18.1976 130.388 19.1457C132.639 19.5012 135.009 19.7975 137.26 20.153C139.393 20.4493 141.466 20.6863 143.54 20.8641C143.599 20.9233 143.658 20.9233 143.717 20.9233C144.014 21.0418 144.31 21.0418 144.606 20.9233C146.976 21.1011 149.108 21.2196 151.182 21.2789L152.544 21.3381C156.217 21.4566 160.009 21.5159 163.682 22.1677C163.741 22.2269 163.8 22.3454 163.859 22.4047C160.483 24.0046 156.573 24.1824 152.248 24.3009C151.774 24.3009 151.419 24.5972 151.36 25.0712C151.241 25.5452 151.537 26.0785 152.011 26.2563C152.13 26.3156 152.307 26.3156 152.426 26.3156C155.151 26.2563 157.994 26.1378 160.72 25.5452C159.772 26.3748 158.824 27.2636 157.876 28.1525C156.81 28.6858 155.684 28.9228 154.559 28.8635C154.085 28.8635 153.611 29.1598 153.551 29.6931C153.433 30.1672 153.67 30.6412 154.085 30.819C154.203 30.8782 154.322 30.8782 154.44 30.8782C154.736 30.8782 155.032 30.8782 155.388 30.8782C152.9 33.6632 150.649 36.6852 148.694 39.9443C147.39 42.0775 146.146 44.3292 145.08 46.6402C142.473 49.4252 138.741 50.8473 134.95 50.6103C134.654 50.6103 134.417 50.6695 134.18 50.8473C134.121 50.9065 134.061 50.9658 134.002 51.0843C130.27 51.4398 126.36 52.0324 122.095 52.9805C118.066 53.8693 114.156 54.8174 110.839 55.7062C108.292 56.358 105.685 57.0098 103.375 58.3727C105.152 56.0025 107.64 54.1656 110.424 53.2767C110.839 53.1582 111.076 52.8027 111.076 52.4472C111.076 52.0324 110.839 51.6176 110.424 51.4398C110.187 51.3213 109.95 51.3213 109.713 51.4398C104.737 53.099 100.827 57.0691 99.1686 62.1651C95.4957 67.4388 97.1544 74.6087 104.204 84.1488C106.337 88.1189 107.818 92.3853 108.529 96.8295C108.588 97.185 108.825 97.4813 109.121 97.5998C109.476 97.7183 109.891 97.659 110.187 97.4813C110.484 97.2442 110.602 96.948 110.543 96.5924C110.187 94.4 109.654 92.2075 108.943 90.0743C109.062 90.2521 110.365 91.7928 110.898 92.3853C117.355 102.518 121.562 113.658 123.516 125.45C123.576 125.805 123.813 126.102 124.109 126.22C124.464 126.339 124.879 126.279 125.175 126.102C125.471 125.865 125.59 125.568 125.531 125.213C124.287 117.628 122.095 110.221 118.955 103.17C119.488 103.999 119.903 104.829 120.377 105.599C120.91 106.547 121.384 107.555 121.858 108.503C122.391 109.629 122.983 110.814 123.635 111.94C126.005 122.783 129.559 136.886 135.483 150.1C135.424 150.159 135.424 150.278 135.424 150.337C135.424 150.159 135.424 150.159 135.424 150.219ZM155.803 157.981C152.959 156.974 149.938 155.848 146.68 154.603C146.087 153.537 145.732 152.352 145.613 151.107C145.554 150.752 145.376 150.456 145.021 150.278C144.665 150.159 144.31 150.219 144.014 150.396C143.717 150.574 143.599 150.93 143.599 151.285C143.658 151.937 143.777 152.53 143.954 153.181C143.244 152.767 142.533 152.292 141.881 151.818C139.393 146.959 137.26 141.982 135.602 137.005C135.483 136.708 135.305 136.531 135.068 136.412C134.713 136.294 134.298 136.353 134.002 136.649C133.706 136.945 133.587 137.301 133.706 137.716C134.831 141.034 136.135 144.352 137.616 147.671C137.023 146.9 136.49 146.071 135.957 145.241C135.839 144.886 135.72 144.53 135.661 144.234C135.542 143.819 135.424 143.523 135.365 143.345C134.417 140.797 133.528 138.13 132.699 135.582C131.751 132.62 130.922 129.657 130.151 126.694C129.855 125.509 129.559 124.265 129.263 123.08C129.204 122.783 129.144 122.546 129.085 122.25C129.144 122.309 129.263 122.369 129.381 122.428C129.737 122.546 130.151 122.487 130.448 122.309C130.744 122.072 130.862 121.717 130.803 121.361C130.685 120.887 130.625 120.413 130.507 119.939C130.566 119.939 130.625 119.998 130.685 119.998C130.922 120.117 131.218 120.235 131.395 120.354C131.692 120.591 131.988 120.769 132.284 121.006C132.403 121.124 132.58 121.243 132.699 121.302L133.824 122.191C135.898 124.265 137.853 126.576 139.689 128.768C141.644 131.138 143.658 133.568 145.909 135.76C150.175 139.849 155.329 143.463 162.201 147.137C167.118 149.744 172.331 152.115 177.307 154.307C181.928 156.381 186.667 158.514 191.228 160.885C191.169 160.944 191.11 161.062 191.051 161.181C190.814 161.714 190.991 162.307 191.525 162.544L192.946 163.255C192.709 163.314 192.532 163.373 192.413 163.551C187.259 163.432 182.105 163.255 177.188 162.958C177.07 162.84 176.951 162.721 176.774 162.662C176.537 162.544 176.3 162.544 176.004 162.662C175.826 162.721 175.648 162.781 175.352 162.84C175.115 162.84 173.989 162.721 173.989 162.721C173.279 162.603 172.508 162.544 171.501 162.425C170.968 162.247 170.435 162.07 169.843 161.833C169.132 161.536 168.48 161.24 167.828 160.944C167.236 160.647 166.703 160.41 166.17 160.233L166.051 160.173C165.518 159.996 165.044 159.759 164.511 159.522C161.667 158.337 158.705 157.033 155.743 155.67C155.21 155.433 154.677 155.67 154.44 156.203C154.203 156.737 154.44 157.27 154.914 157.507C155.151 157.685 155.506 157.862 155.803 157.981ZM198.634 169.002C198.219 168.825 197.804 168.884 197.508 169.18C195.079 171.136 191.939 171.669 189.214 170.602L189.155 170.543C187.852 170.01 186.785 169.062 185.66 168.054C184.89 167.343 184.06 166.632 183.172 166.04C182.994 165.921 182.757 165.803 182.579 165.684C189.392 165.98 196.264 166.158 202.958 166.099C203.136 166.158 203.373 166.158 203.55 166.099C231.808 165.98 259.414 163.077 285.658 157.388C286.191 157.27 286.547 156.855 286.606 156.322C286.665 155.789 286.369 155.314 285.954 155.137C285.776 155.077 285.539 155.018 285.302 155.077C284.236 155.314 283.17 155.552 282.103 155.729L281.156 155.907C281.037 155.907 280.919 155.848 280.859 155.907C280.741 155.907 280.622 155.907 280.563 155.907C282.577 152.826 285.066 150.1 287.909 147.789C288.205 147.552 288.324 147.197 288.265 146.9C288.205 146.545 287.968 146.248 287.613 146.071C287.257 145.952 286.902 146.011 286.665 146.248C283.94 148.441 281.57 151.048 279.556 153.892C279.734 153.004 280.208 151.996 280.622 151.404C281.096 150.752 281.57 150.1 282.044 149.567C288.383 143.286 293.715 137.242 298.276 131.257C298.395 131.553 298.572 131.79 298.869 131.909C299.165 132.027 299.52 131.968 299.816 131.79C301.475 130.605 303.252 129.598 305.207 128.887C306.451 129.479 307.577 130.249 308.703 131.079C300.942 132.205 293.892 136.412 289.212 142.693C289.035 142.93 288.975 143.226 289.035 143.523C289.094 143.819 289.331 144.056 289.627 144.234C290.042 144.412 290.516 144.293 290.753 143.937C295.492 137.538 302.778 133.568 310.717 132.916C312.198 134.338 313.442 135.879 314.449 137.538C315.634 139.493 317.055 142.575 317.233 145.774C317.233 145.952 317.233 146.13 317.233 146.248C317.174 146.367 317.174 146.485 317.174 146.604C317.174 146.782 317.174 146.9 317.115 147.078V147.137C317.115 147.256 317.055 147.315 317.055 147.434C316.996 147.552 316.996 147.611 316.996 147.671L317.529 147.967L316.996 147.73L316.937 147.848C316.108 149.804 312.316 149.507 310.065 149.33C309.769 149.33 309.413 149.27 309.176 149.27L300.824 148.796C300.35 148.796 299.876 149.093 299.757 149.567C299.639 150.041 299.876 150.515 300.29 150.693C300.409 150.752 300.527 150.752 300.646 150.752C301.771 150.811 302.956 150.93 304.082 150.989C302.423 151.463 300.883 152.055 299.461 152.648C299.283 152.648 299.165 152.707 298.987 152.767C298.869 152.826 298.513 153.004 298.513 153.004C297.98 153.241 297.328 153.478 296.736 153.774C296.144 154.011 295.61 154.248 295.018 154.485C290.16 156.559 285.48 158.988 280.622 162.07C278.016 163.729 275.528 164.677 272.388 165.269L271.618 165.388C269.781 165.743 267.827 166.04 266.109 166.869C264.864 167.462 263.798 168.232 262.732 169.002C261.902 169.595 261.132 170.188 260.303 170.662C258.289 171.788 256.156 171.669 253.846 171.55C253.313 171.491 252.72 171.491 252.187 171.491C249.047 171.432 246.026 172.084 243.123 172.736L242.353 172.913C242.116 172.854 241.938 172.854 241.701 172.973C241.583 173.032 241.405 173.091 241.287 173.15C240.694 173.269 240.043 173.387 239.45 173.506C237.555 173.861 235.126 174.158 232.815 173.684C232.401 173.624 231.986 173.447 231.571 173.269L230.742 172.913C230.683 172.854 230.623 172.854 230.564 172.854C230.505 172.854 230.446 172.795 230.327 172.795C229.557 172.499 228.609 172.262 227.661 172.499C226.832 172.736 226.299 173.269 225.884 173.802C225.825 173.921 225.706 173.98 225.647 174.098C224.522 175.224 223.633 175.817 222.389 176.172C219.842 176.824 217.117 176.528 214.451 176.172C214.451 176.172 213.621 176.054 213.266 176.054C210.6 175.758 206.572 175.343 203.491 174.039C201.062 173.032 199.641 171.669 199.344 170.01C199.285 169.477 198.989 169.121 198.634 169.002ZM283.288 163.195C282.637 163.729 282.044 164.262 281.452 164.795C276.653 169.002 272.388 173.861 268.3 178.543C267.59 179.372 266.819 180.202 266.109 181.031C263.087 184.468 259.711 187.846 255.445 191.697C255.327 191.579 255.149 191.46 255.031 191.342C253.313 188.735 250.351 187.253 248.04 186.305C246.915 185.831 245.789 185.416 244.723 185.061C244.13 184.824 243.538 184.646 243.005 184.409C237.495 182.335 231.69 180.261 225.766 178.306C226.654 177.595 227.661 177.12 228.728 176.883H228.905C229.202 176.824 229.498 176.765 229.735 176.765C229.972 176.765 230.209 176.706 230.446 176.706C231.157 176.706 231.927 176.824 232.697 176.943C233.052 177.002 233.408 177.061 233.763 177.12C236.251 177.476 238.443 176.587 240.457 175.698C240.931 175.58 241.405 175.521 241.879 175.402C242.531 175.284 243.123 175.106 243.775 174.987C245.908 174.513 248.099 173.98 250.291 173.861C251.417 173.802 252.542 173.861 253.668 173.921C255.09 174.039 256.512 174.098 257.933 173.921C260.481 173.565 262.258 172.262 264.154 170.839L264.746 170.365C265.516 169.773 266.346 169.358 267.116 169.002L263.087 172.202C262.791 172.439 262.673 172.736 262.732 173.091C262.791 173.447 263.028 173.743 263.383 173.921C263.68 174.039 264.094 173.98 264.331 173.802L271.973 167.699L273.632 167.403C273.81 167.343 273.988 167.343 274.165 167.284C270.907 170.069 267.827 173.091 264.805 175.995C263.324 177.476 261.725 178.957 260.244 180.38C260.007 180.617 259.888 180.972 259.948 181.328C260.007 181.683 260.244 181.979 260.54 182.098C260.895 182.216 261.251 182.157 261.547 181.92C263.087 180.498 264.628 178.957 266.109 177.535C270.729 173.032 275.469 168.41 280.741 164.677C281.689 164.144 282.518 163.67 283.288 163.195ZM200.174 163.432C193.183 158.988 185.601 155.552 178.255 152.292C173.516 150.159 168.658 147.967 164.037 145.537C157.343 142.041 152.307 138.604 148.161 134.753C145.85 132.62 143.836 130.131 141.94 127.702C140.045 125.391 138.09 122.961 135.898 120.828C134.831 119.821 133.706 118.932 132.64 118.043C130.981 116.68 129.263 115.258 127.841 113.599C126.301 111.762 125.175 109.569 124.168 107.377C123.813 106.666 123.457 105.955 123.102 105.303C120.199 99.733 116.348 94.874 112.912 90.7262C112.32 89.9558 111.668 89.2448 111.017 88.4744L110.543 87.8226C110.128 87.2301 109.773 86.6375 109.299 86.045C109.18 85.8672 109.062 85.808 108.884 85.6894C108.766 85.6302 108.647 85.6302 108.588 85.6302C107.64 84.5043 106.455 83.0822 105.389 81.6008C104.737 80.5342 104.204 79.6454 103.612 78.8158C103.552 78.6973 103.493 78.6381 103.375 78.5788C102.723 77.5122 102.249 76.6234 101.834 75.7938C100.709 73.4236 100.176 70.9349 100.235 68.6239C100.294 68.5646 100.353 68.5054 100.413 68.4461C100.59 68.2684 100.709 67.9721 100.65 67.6758C100.59 67.024 100.65 66.3722 100.709 65.6611C101.657 62.7576 103.789 60.5652 106.87 59.3208C112.083 57.3061 117.889 56.121 123.516 55.0544L125.175 54.7581C131.573 53.5138 137.26 52.9805 142.592 53.099C137.971 65.7204 136.431 80.1787 137.734 97.3035C137.734 98.3108 137.793 99.2589 137.853 100.207C137.912 100.74 137.971 101.333 138.03 101.807C137.853 101.985 137.793 102.281 137.793 102.577C137.912 103.407 137.912 104.059 137.793 104.533C137.023 100.918 136.431 97.2442 135.957 93.6889C135.898 93.3334 135.72 93.0371 135.365 92.9186C135.009 92.8001 134.654 92.8593 134.357 93.0371C134.061 93.2741 133.943 93.5704 134.002 93.9259C134.476 97.7775 135.128 101.688 135.957 105.54C135.839 105.481 135.72 105.481 135.542 105.421C135.128 105.244 134.654 104.947 134.298 104.533L132.58 98.3108C132.521 98.0146 132.284 97.7775 132.047 97.7183C131.692 97.5998 131.277 97.659 130.981 97.896C130.685 98.1331 130.566 98.5479 130.685 98.9626L131.395 101.57C130.566 100.681 129.796 99.733 129.085 98.8441L128.789 97.185C128.73 96.8295 128.493 96.5332 128.196 96.4147C127.9 96.2962 127.486 96.2962 127.189 96.5332C124.524 93.0371 122.45 89.6596 120.91 86.2227C120.791 85.9265 120.554 85.7487 120.317 85.6302C119.844 85.4524 119.31 85.5709 118.955 85.9265C118.659 86.282 118.54 86.756 118.777 87.1708C121.68 93.5112 126.005 99.4959 132.758 106.488L132.817 106.725C132.876 107.021 133.113 107.258 133.35 107.318C133.41 107.377 133.528 107.377 133.647 107.377C133.647 107.377 133.884 107.614 134.002 107.732C137.26 110.991 140.637 114.369 144.488 117.984C144.547 118.102 144.665 118.161 144.784 118.28C148.042 121.361 151.537 124.679 155.506 128.294C155.921 128.709 156.336 129.064 156.75 129.479L156.987 129.716C156.987 129.775 156.987 129.775 156.987 129.835C156.928 130.249 157.224 130.664 157.58 130.842C157.817 130.961 158.054 130.961 158.231 130.901C165.814 137.775 172.39 143.226 178.966 148.085C180.861 149.507 182.816 150.811 184.475 151.878C184.594 152.055 184.771 152.233 185.008 152.292C185.067 152.292 185.127 152.352 185.245 152.352L187.852 154.07C187.97 154.366 188.207 154.663 188.503 154.781C188.681 154.84 188.859 154.9 189.037 154.84C189.392 155.077 189.807 155.314 190.162 155.611C190.281 155.729 190.399 155.789 190.518 155.848C193.42 157.744 196.975 160.292 200.174 163.432ZM270.907 154.9C257.756 158.514 244.19 161.122 230.505 162.721C222.271 163.314 213.858 163.61 205.505 163.67C205.624 163.551 205.683 163.432 205.683 163.255C205.802 162.781 205.505 162.247 205.031 162.07C204.913 162.01 204.735 162.01 204.617 162.01L202.069 162.07C201.062 161.062 199.996 160.055 198.811 159.107L205.624 159.522C206.098 159.581 206.572 159.225 206.69 158.751C206.809 158.277 206.572 157.803 206.157 157.625C206.039 157.566 205.92 157.566 205.861 157.566L196.56 156.974C196.442 156.974 196.323 156.974 196.205 157.033C195.612 156.618 195.079 156.203 194.487 155.789C200.825 155.729 207.283 156.026 213.503 156.322C215.102 156.381 216.643 156.44 218.242 156.5C218.716 156.5 219.19 156.203 219.308 155.67C219.427 155.196 219.19 154.722 218.775 154.544C218.657 154.485 218.538 154.485 218.42 154.485C216.88 154.426 215.339 154.366 213.799 154.307C210.304 154.129 206.749 154.011 203.195 153.892C207.105 153.774 210.956 153.774 214.806 153.774H217.768C233.882 153.715 247.448 152.411 260.007 146.9C256.097 149.152 252.009 151.167 247.685 152.529C247.27 152.648 247.033 153.004 247.033 153.359C247.033 153.774 247.27 154.189 247.685 154.366C247.922 154.485 248.159 154.485 248.396 154.366C255.327 152.233 261.547 148.382 267.59 144.708L268.241 144.293C269.189 143.7 270.137 143.167 271.026 142.575C274.343 140.56 277.72 138.545 280.919 136.234C280.03 137.656 279.082 139.079 278.253 140.56C277.305 141.508 276.179 142.456 274.817 143.523C272.447 145.3 270.018 147.078 267.59 148.737C266.523 149.507 265.516 150.219 264.45 150.989C264.154 151.226 263.976 151.522 264.035 151.878C264.094 152.233 264.331 152.589 264.687 152.707C264.983 152.826 265.338 152.826 265.635 152.589C266.701 151.818 267.827 151.048 268.952 150.278C271.144 148.737 273.336 147.197 275.528 145.537C275.172 146.248 274.817 146.9 274.461 147.611C274.402 147.671 274.343 147.671 274.284 147.73C272.921 149.033 271.381 150.041 269.604 150.633C269.189 150.752 268.952 151.107 268.952 151.522C268.952 151.937 269.189 152.352 269.604 152.529C269.841 152.648 270.078 152.648 270.315 152.529C271.085 152.233 271.855 151.937 272.566 151.522C271.914 152.47 271.44 153.655 270.907 154.9ZM287.257 127.287C286.428 127.939 285.776 128.472 285.066 129.005C277.483 134.753 268.952 139.908 260.481 143.997C253.55 147.315 245.552 149.507 236.666 150.515C228.728 151.404 220.671 151.404 212.851 151.463C206.098 151.463 199.048 151.522 192.176 152.055L192.236 151.996C192.295 151.996 192.354 151.937 192.473 151.878C204.676 150.811 216.465 147.789 230.386 143.582C240.043 140.678 249.699 137.775 259.355 134.812L264.568 133.212C265.575 133.094 266.405 132.857 267.234 132.501C267.293 132.442 267.353 132.442 267.412 132.383L280.8 128.353C281.274 128.235 281.57 127.82 281.57 127.405C281.57 126.872 281.274 126.398 280.8 126.22C280.563 126.102 280.267 126.102 279.971 126.161L262.554 131.435C261.902 131.435 261.192 131.375 260.599 131.316C261.902 130.19 263.443 129.301 265.161 128.709C265.575 128.59 265.812 128.235 265.812 127.82C265.812 127.405 265.575 126.99 265.161 126.813C264.924 126.694 264.687 126.694 264.45 126.813C263.68 127.109 262.91 127.405 262.199 127.82C263.147 126.753 264.213 125.805 265.279 124.857C265.575 124.62 265.694 124.265 265.635 123.968C265.575 123.613 265.338 123.317 264.983 123.139C264.628 123.02 264.272 123.08 263.976 123.317C263.028 124.087 262.139 124.917 261.31 125.805C263.147 123.494 265.101 121.302 267.234 119.228C267.471 118.991 267.59 118.635 267.53 118.28C267.471 117.924 267.234 117.628 266.938 117.51C266.582 117.391 266.227 117.45 265.931 117.687C262.08 121.302 258.763 125.45 255.978 129.953C256.097 129.538 256.156 129.124 256.275 128.709C256.571 127.287 256.867 125.865 257.4 124.442C258.111 122.428 259 120.472 260.007 118.576C262.376 114.31 265.516 110.636 269.426 107.495C269.722 107.258 269.841 106.962 269.781 106.607C269.722 106.251 269.485 105.955 269.13 105.777C268.834 105.659 268.419 105.718 268.182 105.896C265.101 108.384 262.436 111.229 260.244 114.428C261.31 112.177 262.495 110.043 263.976 108.029C264.154 107.792 264.213 107.495 264.094 107.199C264.035 106.903 263.798 106.666 263.502 106.547C263.087 106.37 262.613 106.488 262.376 106.903C259.651 110.814 257.578 115.08 256.215 119.524C257.282 113.954 258.822 108.503 260.777 103.17C261.429 102.222 262.139 101.214 262.85 100.148C263.028 100.089 263.206 99.97 263.383 99.7922C266.582 95.3481 270.374 91.6742 274.698 88.7707C276.594 87.5264 279.141 86.045 281.867 85.5709C283.348 85.3339 284.651 85.3932 285.836 85.8672C285.895 85.8672 285.954 85.9265 286.013 85.9265C286.132 85.9857 286.25 86.045 286.31 86.045C286.428 86.1042 286.487 86.1042 286.606 86.1635C286.724 86.4005 286.902 86.5783 287.198 86.6375C287.435 86.756 287.672 86.756 287.85 86.6968C288.798 87.4079 289.746 88.1189 290.634 88.83C290.042 88.83 289.39 88.83 288.798 88.9485C288.324 89.0078 288.028 89.3633 287.968 89.8373C287.909 90.3114 288.146 90.7262 288.561 90.9039C288.738 90.9632 288.916 90.9632 289.094 90.9632C290.634 90.7262 292.174 90.9039 293.655 91.4965C293.715 91.4965 293.774 91.5557 293.892 91.5557C293.952 91.615 294.011 91.615 294.07 91.6742C294.129 91.7335 294.248 91.7927 294.307 91.852C298.098 95.2888 301.357 98.9034 304.082 102.636C305.504 104.592 305.859 106.073 305.977 108.325C305.8 108.206 305.622 108.147 305.444 108.088C304.97 107.91 304.496 107.792 304.023 107.732C303.549 107.673 303.075 107.969 302.956 108.503C302.838 108.977 303.075 109.451 303.489 109.688C303.608 109.747 303.667 109.747 303.786 109.747C304.082 109.747 304.378 109.866 304.674 109.984C305.267 110.221 305.74 110.636 306.037 111.169C306.037 111.347 306.096 111.584 306.096 111.762C302.897 111.406 299.579 111.229 296.38 111.347C295.907 111.347 295.551 111.643 295.492 112.117C295.433 112.591 295.67 113.065 296.084 113.243C296.203 113.302 296.38 113.302 296.499 113.302C299.165 113.243 301.831 113.302 304.556 113.599C300.113 116.206 296.262 119.643 292.471 122.902C291.464 123.791 290.456 124.679 289.39 125.568C288.975 125.509 288.62 125.687 288.324 125.983C288.087 126.279 287.909 126.516 287.672 126.813C287.494 126.931 287.376 127.109 287.257 127.287ZM188.859 149.744C188.326 149.804 187.733 149.804 187.2 149.804C181.217 145.241 175.885 139.908 171.264 133.983C171.146 133.864 171.027 133.746 170.85 133.686C170.435 133.509 169.961 133.627 169.665 134.042C169.369 134.397 169.369 134.871 169.665 135.227C171.975 138.19 174.463 141.034 177.07 143.641C174.404 141.627 171.679 139.375 168.836 137.005C167.118 134.575 166.762 131.316 166.466 128.176C166.407 127.464 166.347 126.813 166.229 126.102C165.755 122.013 164.807 117.865 163.445 113.717V113.658V113.539C162.615 110.221 161.608 106.962 160.423 103.881C160.364 103.822 160.364 103.703 160.305 103.644C161.608 104.592 163.089 105.421 164.689 106.073C164.807 106.133 164.926 106.192 165.044 106.251C165.577 106.429 166.051 106.666 166.584 106.844C167.295 107.081 168.006 107.377 168.717 107.673C169.724 108.088 170.553 108.503 171.264 108.918C173.101 109.984 174.76 111.406 176.241 112.651C179.084 115.08 181.75 117.154 185.008 118.517C185.423 118.695 185.838 118.813 186.252 118.991C189.688 120.117 193.302 120.413 197.034 119.821C198.93 121.657 201.24 123.08 204.321 124.324C205.505 124.798 206.749 125.272 208.349 125.746C212.555 127.109 217.117 128.176 222.271 129.124C228.905 130.309 235.718 131.079 242.649 131.79C241.109 132.264 239.746 132.797 238.443 133.272C238.088 133.39 237.792 133.746 237.792 134.16C237.792 134.575 238.029 134.99 238.443 135.108C238.68 135.227 238.917 135.227 239.154 135.108C241.879 134.101 244.663 133.153 247.744 132.264C248.633 132.323 249.521 132.442 250.41 132.501C237.318 136.057 224.048 139.493 211.015 142.693C210.6 142.812 210.245 143.167 210.245 143.641C210.185 144.056 210.422 144.471 210.837 144.649C211.015 144.708 211.252 144.767 211.429 144.708C225.588 141.212 239.983 137.479 254.083 133.627C254.201 133.627 254.26 133.568 254.32 133.509C254.557 133.568 254.794 133.627 254.971 133.746L250.41 135.108C243.775 137.123 237.14 139.138 230.505 141.152C219.545 144.471 206.809 148.145 193.954 149.448H193.894C193.302 149.27 192.709 149.093 192.117 148.856C188.444 147.315 185.541 144.53 182.342 141.33C182.224 141.212 182.165 141.152 182.046 141.093C181.631 140.915 181.158 141.093 180.921 141.449C180.624 141.864 180.684 142.397 181.039 142.752C183.646 145.36 186.252 147.908 189.333 149.626C189.155 149.567 188.977 149.626 188.859 149.744ZM160.246 111.88C159.89 111.762 159.535 111.821 159.239 111.999C158.942 112.236 158.824 112.532 158.883 112.888C159.475 117.865 159.949 123.02 160.483 128.65C159.949 128.353 158.883 127.761 158.883 127.761C158.824 125.805 158.528 123.791 157.994 121.894C157.935 121.598 157.698 121.361 157.461 121.302C157.106 121.183 156.691 121.243 156.395 121.48C156.099 121.776 155.98 122.132 156.099 122.546C156.454 123.791 156.691 125.035 156.81 126.279C155.921 125.45 155.032 124.679 154.144 123.85L153.788 120.354C153.729 119.998 153.551 119.702 153.196 119.524C152.841 119.406 152.485 119.465 152.189 119.643C151.893 119.88 151.774 120.176 151.774 120.532L151.893 121.717C149.997 119.939 148.042 118.043 145.85 115.969C142.414 98.7256 141.763 81.186 143.954 63.765C144.014 63.2909 143.777 62.9354 143.362 62.7576C143.066 62.6391 142.71 62.6391 142.473 62.8169C142.236 62.9946 142.059 63.2317 142 63.5279C139.867 80.1787 140.341 97.0072 143.362 113.539C142.829 113.006 142.296 112.473 141.763 111.999C139.156 95.8814 138.741 82.7859 140.4 70.8756C141.289 64.6538 142.829 58.6097 145.021 52.9212C145.435 52.8027 145.732 52.5064 145.85 52.0324C145.909 51.6769 145.909 51.3806 145.732 51.0843C150.471 39.648 160.009 24.6564 178.61 17.4865C180.387 16.7754 182.165 16.0051 183.942 15.2348C187.97 13.4571 192.176 11.6202 196.442 10.8499C201.536 9.96107 206.927 10.5536 211.666 12.5091C212.674 12.9238 213.681 13.4571 214.688 13.9904C216.702 15.1163 218.775 16.5977 221.204 18.6124C221.323 18.7901 221.5 18.9679 221.678 19.0271H221.737C222.626 19.7382 223.455 20.5085 224.344 21.2789C224.344 21.3974 224.403 21.5159 224.462 21.6344C222.093 19.5012 219.545 17.5458 216.761 16.0644C215.991 15.6496 215.221 15.2941 214.392 14.9385C206.276 11.561 196.797 12.272 189.096 16.894C188.8 17.0717 188.622 17.4272 188.622 17.7828C188.622 18.1383 188.918 18.4938 189.274 18.6716C189.57 18.7901 189.925 18.7901 190.162 18.6124C197.212 14.4052 206.039 13.8127 213.74 16.9532C215.458 17.6643 217.117 18.5531 218.657 19.6197C222.034 21.9307 224.996 24.8934 227.898 27.7377C228.728 28.5673 229.616 29.3968 230.446 30.2264C233.289 32.9522 236.192 35.3224 239.213 37.2778C238.325 37.3371 237.495 37.3371 236.607 37.3963C236.37 37.3371 236.133 37.2185 235.896 37.1593C234 36.389 232.223 35.0854 230.623 33.9595C228.491 32.4189 226.417 30.6412 224.403 28.6265C224.285 28.508 224.225 28.4487 224.107 28.3895C223.692 28.2117 223.218 28.3895 222.981 28.745C222.685 29.1598 222.744 29.6931 223.1 30.0486C225.529 32.4189 228.076 34.5521 230.683 36.3297C231.275 36.7445 231.867 37.1593 232.519 37.5148C230.801 37.6333 229.083 37.7518 227.306 37.8704C227.306 37.8704 227.306 37.8704 227.247 37.8704C225.41 36.1519 223.218 34.6113 220.849 33.3077C219.842 32.7744 218.775 32.3004 217.768 31.8263C215.695 30.9967 213.621 30.3449 211.607 29.9894C208.053 29.3376 205.446 30.5227 202.603 32.4781C194.25 38.2259 186.489 43.6181 178.966 48.9511C176.478 50.7288 174.049 52.862 172.982 56.4765C172.864 56.5358 172.745 56.7136 172.627 56.8321C171.087 59.6171 168.895 61.8688 166.17 63.5872C165.873 63.765 165.696 64.1205 165.696 64.476C165.755 64.8316 165.992 65.1871 166.347 65.3649C166.644 65.4834 166.999 65.4834 167.295 65.3056C169.072 64.1797 170.613 62.8761 171.975 61.2762C171.857 62.0466 171.738 62.8761 171.62 63.765C169.902 66.7277 165.873 67.9721 162.319 68.8609C161.904 68.9794 161.549 69.335 161.549 69.809C161.49 70.2238 161.727 70.6386 162.141 70.8163C162.319 70.8756 162.556 70.9349 162.734 70.8756C163.504 70.6978 164.215 70.5201 164.985 70.2831C163.089 71.1126 161.193 72.0014 159.475 73.0088C156.691 74.6087 155.447 76.5641 155.743 78.9936C155.862 80.2972 156.395 81.5416 156.869 82.7267C157.047 83.2007 157.224 83.6748 157.402 84.0896L159.535 90.1928C157.402 91.0224 155.98 92.089 155.329 93.3926C154.855 93.5704 154.559 94.0444 154.559 94.5185C154.618 96.7702 155.566 98.7849 156.573 100.74C156.928 101.451 157.284 102.103 157.521 102.814C158.765 105.836 159.89 108.977 160.72 112.177C160.66 112.117 160.483 111.999 160.246 111.88ZM163.148 128.65C162.911 129.124 162.674 129.361 162.497 129.42C162.023 123.494 161.43 118.043 160.838 112.71C160.897 112.828 160.897 112.947 160.956 113.065C162.201 118.043 162.971 123.317 163.148 128.65ZM269.604 158.04C266.938 158.514 264.272 158.929 261.547 159.344C264.331 158.692 267.175 157.981 269.959 157.211C269.841 157.507 269.722 157.744 269.604 158.04ZM196.916 117.747C196.856 117.747 196.856 117.747 196.797 117.747C192.887 118.398 189.037 117.984 185.601 116.561L185.364 116.443C182.52 115.199 180.15 113.302 177.722 111.229C177.307 110.873 176.833 110.517 176.418 110.103C176.241 109.925 176.063 109.806 175.826 109.629C176.478 109.925 177.188 110.221 177.84 110.517C182.283 112.354 186.963 113.836 191.465 115.258C192.828 115.673 194.131 116.087 195.494 116.502C198.752 117.569 202.069 118.872 205.209 120.117C211.193 122.487 217.354 124.976 223.752 125.924C226.18 126.872 228.55 127.761 231.038 128.413C228.905 128.116 226.832 127.82 224.699 127.464C219.308 126.576 214.628 125.509 210.363 124.265C208.586 123.731 206.69 123.139 204.854 122.369C201.892 121.124 199.7 119.761 197.923 117.984C197.804 117.865 197.686 117.806 197.567 117.747C197.449 117.628 197.152 117.628 196.916 117.747ZM276.002 151.937C275.942 151.937 275.942 151.937 275.883 151.996L275.409 151.7C275.409 151.522 275.35 151.285 275.172 151.167C275.172 151.107 275.172 151.107 275.172 151.048C276.831 147.493 278.786 143.937 280.919 140.441C282.103 139.079 282.992 137.716 283.585 136.234C285.243 133.746 287.02 131.316 288.916 128.946C290.634 127.583 292.293 126.102 293.892 124.679C297.684 121.361 301.534 117.984 305.918 115.436C303.075 120.472 299.52 125.628 295.196 131.138C289.982 137.775 283.703 144.589 276.002 151.937ZM198.93 114.725C192.176 112.591 185.245 110.34 178.551 107.792C177.662 107.436 176.833 107.081 175.944 106.725C174.582 106.133 173.219 105.54 171.916 104.947L170.731 102.044C170.613 101.807 170.435 101.629 170.198 101.511C169.843 101.333 169.369 101.451 169.072 101.748C168.776 102.044 168.717 102.459 168.895 102.814L169.25 103.644C169.191 103.644 169.191 103.585 169.132 103.585C168.065 101.748 167.118 99.7922 166.407 97.8368C166.288 97.5998 166.11 97.3628 165.873 97.2442C165.518 97.0665 165.044 97.185 164.807 97.4813C164.748 97.5405 164.689 97.5998 164.689 97.659L159.653 83.3785L159.357 82.4897C159.12 81.8971 158.942 81.3045 158.765 80.712L158.705 80.5342C158.231 79.1121 158.172 78.9936 158.824 77.5122C159.653 75.616 161.016 74.9642 162.852 74.1347L163.267 73.9569C165.34 73.0088 167.414 72.0607 169.487 71.1719L170.731 70.5793C169.665 77.7492 168.954 85.0376 168.717 92.2668C167.473 90.9632 166.584 89.6596 165.933 88.1782C165.814 87.8819 165.577 87.7041 165.34 87.5856C164.926 87.4079 164.333 87.5264 163.978 87.8819C163.682 88.2374 163.563 88.7115 163.741 89.1263C166.407 95.1703 172.331 98.1331 178.018 101.037C179.44 101.748 180.802 102.459 182.105 103.229C188.622 106.903 194.961 111.169 200.885 115.317C200.174 115.139 199.522 114.962 198.93 114.725ZM162.971 100.148C161.964 99.4959 161.075 98.9034 160.186 98.3108C159.949 98.1331 159.772 98.0146 159.594 97.896C158.468 97.1257 158.468 97.1257 158.587 95.1703V95.0518L158.528 94.9333C158.291 94.2815 158.291 93.7482 158.468 93.3926C158.646 93.0964 159.002 92.8593 159.535 92.7408H159.594H159.653C159.831 92.6816 160.009 92.5631 160.186 92.5038L162.971 100.148ZM208.29 117.747C207.46 117.154 206.572 116.502 205.683 115.91C207.223 116.858 209.001 117.747 211.074 118.695C210.126 118.339 209.178 118.043 208.29 117.747ZM205.802 113.599C205.328 113.421 204.795 113.599 204.498 114.073C204.321 114.428 204.321 114.843 204.558 115.139C200.766 112.414 196.738 109.688 192.65 107.021C191.465 106.073 191.465 105.481 191.643 105.125H191.999C193.42 105.184 194.842 105.303 196.205 105.54C200.233 106.251 204.143 107.673 207.994 109.095L208.112 109.155C208.645 109.332 209.178 109.095 209.415 108.562C209.593 108.029 209.415 107.495 208.882 107.318C207.401 106.784 205.92 106.251 204.439 105.718C206.927 106.251 209.475 106.844 212.081 107.436C212.851 107.614 213.681 107.792 214.451 107.969C219.96 109.273 226.951 110.399 233.882 108.562C231.275 109.925 228.432 110.754 225.41 110.34C224.936 110.28 224.462 110.577 224.344 111.051C224.225 111.525 224.462 112.058 224.936 112.236C224.996 112.295 225.114 112.295 225.173 112.295C232.341 113.362 238.621 108.206 244.13 103.644C245.197 102.755 246.144 101.985 247.152 101.214L247.211 101.155C248.04 100.681 248.988 100.326 249.936 100.029C244.663 105.244 240.22 111.11 236.607 117.51C236.607 117.45 236.607 117.332 236.547 117.273C236.488 117.036 236.251 116.799 236.014 116.68C235.54 116.502 234.948 116.68 234.711 117.095C233.408 119.346 232.282 121.717 231.334 124.205L219.782 119.821C218.953 119.524 218.124 119.228 217.294 118.872C215.754 118.28 214.155 117.687 212.614 117.095C209.948 116.028 207.934 114.962 206.157 113.717C205.92 113.658 205.861 113.658 205.802 113.599ZM236.547 126.102C238.621 121.42 241.109 116.917 244.012 112.591L244.9 111.466L250.588 104.473C250.232 104.888 249.936 105.362 249.58 105.777C244.841 112.177 239.924 118.754 237.021 126.22L236.547 126.102ZM238.976 126.753C241.82 119.524 246.678 113.065 251.298 106.784C258.23 97.4813 265.398 87.8819 266.286 75.6753C266.346 75.2605 266.049 74.8457 265.694 74.6679C265.398 74.5494 265.042 74.5494 264.746 74.7272C264.509 74.905 264.331 75.142 264.272 75.4975C264.094 77.6307 263.739 79.7639 263.147 81.8971C263.147 81.8378 263.147 81.8378 263.147 81.7786L262.85 72.6533C262.85 72.2385 262.613 71.9422 262.258 71.8237C261.962 71.7052 261.547 71.7644 261.251 71.9422C260.955 72.12 260.777 72.4755 260.836 72.831L260.955 76.2086C259.77 74.4902 258.17 73.0088 256.808 71.7052L256.63 71.5274C254.083 69.1572 251.002 67.024 247.566 65.1871C246.618 62.0465 244.9 58.6097 242.649 55.1137C240.931 52.5064 238.917 50.551 236.607 49.3659C237.555 49.1289 238.502 49.0104 239.45 49.0104C239.924 49.0104 240.28 48.7141 240.339 48.24C240.398 47.766 240.161 47.292 239.746 47.1142C239.628 47.0549 239.45 47.0549 239.332 47.0549C237.436 47.1142 235.54 47.529 233.763 48.24C233.112 46.2254 232.104 44.3292 230.92 42.5515C231.157 42.5515 231.334 42.5515 231.571 42.4923C231.749 42.4923 231.927 42.4923 232.045 42.433L242.353 42.0182C242.827 42.0182 243.182 41.6627 243.242 41.2479C243.301 40.9516 243.242 40.6554 243.064 40.4183C245.374 40.4776 247.566 40.9516 249.521 41.7812C251.061 42.433 252.542 43.3218 253.905 44.4477C254.557 45.0403 255.208 45.7513 255.86 46.4031C256.452 46.9957 257.045 47.5882 257.637 48.1808L263.206 53.573C263.62 53.9878 264.154 54.4026 264.628 54.8766C266.464 56.5358 268.597 58.3727 268.834 60.5652C268.952 61.7503 268.952 62.9946 268.952 64.1797C268.952 65.2463 268.952 66.3722 269.011 67.4388C269.071 67.9721 269.13 68.4461 269.13 68.9794C269.308 70.9349 269.485 72.8903 269.485 74.8457C269.189 75.0235 269.011 75.3197 268.952 75.6753C268.893 76.0901 269.071 76.5049 269.367 76.7419C268.656 85.8672 264.035 93.8667 259.948 99.8515C259.533 99.8515 259.118 100.148 258.94 100.563C258.822 100.859 258.703 101.155 258.585 101.511L258.407 101.985L258.111 102.399C253.727 108.503 249.047 114.547 244.486 120.354C242.827 122.487 241.109 124.679 239.45 126.872L238.976 126.753ZM244.426 128.176C246.026 122.902 249.64 118.043 252.957 113.954C253.076 114.132 253.194 114.31 253.431 114.369C253.727 114.488 254.023 114.488 254.32 114.31C254.616 114.191 254.794 113.954 254.853 113.658L255.86 109.688C255.978 109.569 256.097 109.392 256.156 109.273C254.201 116.028 252.839 122.961 252.246 129.953C251.713 129.775 251.18 129.657 250.647 129.479C250.706 127.524 251.061 125.628 251.713 123.85C251.891 123.317 251.654 122.783 251.121 122.546C250.884 122.428 250.588 122.428 250.351 122.546C250.114 122.665 249.936 122.843 249.817 123.08C249.166 124.917 248.751 126.872 248.633 128.887C248.277 128.827 247.981 128.768 247.625 128.709L248.04 127.05C248.159 126.576 247.922 126.161 247.507 125.983C247.211 125.865 246.915 125.865 246.618 126.042C246.322 126.161 246.144 126.398 246.085 126.694L245.671 128.353C245.611 128.353 245.137 128.294 245.137 128.294L244.426 128.176ZM193.776 51.0843C189.747 50.6695 186.371 51.5583 183.646 53.7508C177.248 58.8468 176.774 67.3795 176.774 75.6753C176.774 76.1493 176.774 76.5641 176.774 77.0382V77.5715C176.774 84.6821 177.129 91.7335 177.781 98.6664C176.122 97.8368 174.286 96.8295 172.568 95.6444C171.383 85.808 172.331 76.1493 173.634 67.2018C173.693 66.6092 173.812 65.9574 173.871 65.3649C174.404 63.8242 174.641 62.2243 174.523 60.5652C174.997 57.9579 175.885 54.7581 178.551 52.5064C180.98 50.4325 183.764 48.6548 186.371 46.8772C187.556 46.0476 188.859 45.218 190.044 44.3884L202.603 35.6187C202.84 35.4409 203.077 35.2631 203.314 35.1446C205.268 33.7817 207.283 32.3596 209.652 32.4189C211.489 32.4781 213.503 33.0707 215.221 33.6632C215.339 33.9002 215.517 34.078 215.754 34.1965C215.813 34.2558 215.932 34.2558 215.991 34.2558C216.761 34.3743 217.531 34.6113 218.361 34.9076C219.308 35.3224 220.256 35.8557 221.145 36.389C222.626 37.3963 224.166 38.8184 225.943 40.8331L226.358 41.3072C226.417 41.4257 226.477 41.4849 226.595 41.5442C228.728 43.9737 230.15 45.9291 231.275 47.9438C231.394 48.2993 231.571 48.6548 231.631 49.0104C231.571 49.4252 231.69 49.7807 231.927 50.077C231.927 50.1362 231.986 50.1955 231.986 50.314C232.104 50.6695 232.341 50.9658 232.697 51.1436C233.112 51.3213 233.585 51.2621 233.941 50.9658C234 50.9065 234.059 50.8473 234.119 50.788C234.356 50.8473 234.593 50.9658 234.77 51.025C237.081 51.9731 239.095 53.8101 240.872 56.6543C240.872 56.6543 240.931 56.7136 240.931 56.7728C240.991 56.8913 241.05 56.9506 241.109 57.0691C241.168 57.1876 241.227 57.2469 241.287 57.3654C241.524 57.7802 241.82 58.2542 242.057 58.7282C242.472 59.4986 242.886 60.2689 243.242 61.0392C244.782 64.713 245.434 69.0979 245.137 73.9569C244.782 79.7639 243.893 86.8745 239.746 90.5484C239.687 90.5484 239.628 90.5484 239.628 90.6076C239.332 84.6228 238.443 78.7566 236.962 73.1866C236.903 72.8903 236.666 72.6533 236.37 72.4755C236.014 72.2977 235.54 72.4162 235.303 72.6533C235.066 72.8903 234.948 73.2458 235.007 73.6013C236.37 78.6973 237.258 84.0303 237.555 89.4818C237.436 89.304 237.318 89.1855 237.14 89.067C236.251 77.5122 232.104 66.6092 225.114 57.4839C223.218 54.9952 221.086 52.6842 218.835 50.551L218.538 50.2547C216.583 48.4178 214.332 46.2846 211.726 45.218C211.311 45.0403 210.896 44.9217 210.541 44.8032C205.209 43.3218 198.811 47.3512 193.776 51.0843ZM186.726 101.688C186.252 95.3481 186.252 89.067 186.726 83.023C186.785 82.3119 186.845 81.6008 186.845 80.8305C186.963 78.4603 187.082 75.8531 187.792 73.7791C188.148 72.6533 189.096 71.1719 189.925 70.7571C190.281 70.5793 190.932 70.6386 191.525 70.6978C190.103 72.0015 189.155 73.8384 188.74 75.9716C188.503 76.1493 188.385 76.3864 188.385 76.6826L188.029 86.9931C188.029 87.4079 188.266 87.8226 188.681 88.0004C188.977 88.1189 189.333 88.1189 189.629 87.9412C189.866 87.7634 190.044 87.5264 190.044 87.1708L190.162 84.3858C190.991 86.1635 192.058 87.7634 193.006 89.1263C194.724 91.615 196.56 94.1037 198.337 96.5332C198.752 97.1257 199.226 97.7183 199.641 98.3108C195.79 99.0219 192.769 100.148 190.221 101.629C190.221 101.629 189.629 101.629 189.392 101.629L189.333 94.7555C189.333 94.3407 189.096 94.0444 188.8 93.9259C188.503 93.8074 188.089 93.8667 187.792 94.0444C187.496 94.2222 187.319 94.5778 187.319 94.9333L187.378 101.688C187.141 101.688 186.963 101.688 186.726 101.688ZM182.52 99.0812C182.461 99.0812 182.402 99.0219 182.283 99.0219C182.165 98.9627 182.046 98.7849 181.928 98.6664C181.631 98.3108 181.395 97.8368 181.158 97.3035C179.38 87.9411 176.004 65.4241 183.586 56.7728C185.66 54.4026 188.503 53.2175 191.999 53.2767V53.336C192.117 53.6915 192.354 53.9286 192.709 54.0471C193.065 54.2248 193.48 54.1656 193.835 53.8693C193.954 53.7508 194.131 53.6323 194.25 53.573C194.309 53.573 194.309 53.5138 194.368 53.5138C194.783 53.573 195.138 53.6323 195.494 53.7508C197.508 54.1656 199.463 54.8174 201.299 55.5877C213.029 60.4467 222.685 72.4755 227.78 88.5337C227.721 88.7115 227.721 88.9485 227.78 89.1263C228.313 90.7854 228.491 92.0298 227.543 93.0371L227.484 93.0964C227.247 93.3334 227.069 93.4519 226.832 93.5704C226.536 93.7482 225.943 94.1037 225.173 94.3407C223.811 89.4818 221.56 84.9784 218.598 80.949C218.479 80.8305 218.361 80.712 218.183 80.6527C217.768 80.475 217.294 80.5935 216.998 81.0083C216.702 81.3638 216.702 81.8378 216.998 82.1934C219.545 85.5709 221.5 89.304 222.804 93.3334C222.685 93.1556 222.567 92.9779 222.33 92.9186C222.271 92.9186 222.211 92.8593 222.152 92.8593C218.953 86.045 215.991 80.712 212.851 76.1493C211.074 73.6013 208.882 71.8237 205.979 70.6386C203.728 69.6905 201.122 69.1572 197.508 68.8609C197.449 68.8609 197.33 68.8017 197.271 68.8017C197.093 68.8017 196.975 68.8017 196.797 68.8017H196.619C195.671 68.7424 194.664 68.6832 193.657 68.6239C193.361 68.6239 193.065 68.5646 192.769 68.5646C190.695 68.4461 188.089 68.2091 186.548 70.046C184.949 71.9422 184.771 75.2012 184.593 77.8677C184.534 78.5788 184.534 79.2306 184.475 79.7639C184.06 83.734 183.823 87.8819 183.823 92.089C183.586 92.2668 183.409 92.6223 183.468 92.9779C183.646 94.7555 183.586 96.4147 183.231 97.9553L183.172 98.1923C183.053 98.7849 183.053 98.7849 182.52 99.0812C182.639 99.0812 182.698 99.0219 182.52 99.0812ZM247.507 98.1923C245.73 99.0219 244.13 100.207 242.59 101.392C241.227 102.459 239.746 103.525 238.206 104.296C229.498 108.74 220.079 106.962 211.963 104.947C207.757 103.881 203.314 102.874 198.693 102.222C201.773 101.629 204.854 101.155 207.934 100.681C208.171 100.74 208.408 100.681 208.645 100.563C212.318 100.029 215.339 99.6145 218.242 99.2589C218.835 99.1997 219.427 99.1404 219.96 99.0812C223.692 98.6664 227.602 98.2516 231.275 97.0072C234.474 95.9406 237.673 94.637 240.813 93.3334H240.872C244.249 92.4446 247.862 91.1409 248.751 87.1708C248.87 86.6375 248.633 86.1042 248.099 85.9265C247.744 85.808 247.389 85.808 247.033 85.9857C246.737 86.1635 246.5 86.4598 246.441 86.8153C246.263 87.7634 245.73 88.5337 244.96 89.1855C246.026 86.8745 246.855 84.2673 247.389 81.2453C247.448 81.3046 247.507 81.3046 247.566 81.3638C251.298 83.497 254.023 85.3932 252.898 88.3559C252.009 90.6669 250.588 92.9186 249.284 95.0518C248.692 95.9999 248.099 97.0072 247.507 97.9553C247.566 98.0146 247.566 98.1331 247.507 98.1923ZM202.188 97.8368C201.359 96.7702 200.529 95.6443 199.759 94.5778C197.33 91.378 194.783 88.0597 192.887 84.5636C191.228 81.5416 190.399 76.3864 192.058 73.4236C192.887 71.9422 194.25 71.1126 196.145 70.9941C196.264 70.9941 196.382 70.9941 196.501 70.9941C196.679 70.9941 196.797 70.9941 196.975 70.9941L197.567 71.0534C200.352 71.2904 203.195 71.5274 205.683 72.594C206.276 72.831 206.809 73.1273 207.283 73.4236C209.83 75.0235 211.429 77.69 213.029 80.2972L213.266 80.712C213.977 81.8971 214.688 83.1415 215.399 84.3858C214.51 83.3192 213.503 82.2526 212.496 81.2453C212.377 81.1268 212.318 81.0675 212.2 81.0083C211.785 80.8305 211.311 81.0083 211.074 81.3638C210.778 81.7786 210.837 82.3119 211.193 82.6674C214.925 86.3413 217.827 90.6669 219.842 95.5258C219.605 95.5851 219.368 95.5851 219.131 95.6444C217.235 91.7335 215.102 88.1189 212.733 84.8599C211.548 83.26 209.948 81.0675 207.875 80.1787C206.749 79.7047 205.624 79.7047 204.498 80.1194C200.885 81.4231 202.069 85.808 202.721 88.4152C202.78 88.6522 202.84 88.83 202.899 89.0077C203.432 91.1409 204.202 93.3334 205.15 95.4666C203.017 93.0964 201.122 90.5484 199.581 88.0597L199.344 87.6449C197.034 83.9118 193.598 78.2825 196.797 74.7272C197.034 74.4309 197.152 74.0754 197.093 73.7791C197.034 73.4236 196.738 73.0681 196.382 72.9495C195.908 72.7718 195.375 72.8903 195.02 73.2458C191.288 77.3344 194.131 82.9044 195.671 85.8672C197.567 89.6003 200.055 93.2149 203.017 96.5924C203.077 96.7109 203.136 96.7702 203.195 96.8295C203.373 96.948 203.432 97.1257 203.432 97.3035C203.432 97.422 203.314 97.5998 203.195 97.7183C202.78 97.7775 202.484 97.7775 202.188 97.8368ZM216.761 96.0591C216.346 96.1184 215.873 96.2369 215.458 96.2962C213.266 96.6517 211.015 96.8887 208.586 97.1257L207.994 97.185C206.868 95.0518 205.979 92.9186 205.328 90.7854L205.209 90.4891C204.676 88.7115 203.136 84.0895 204.439 82.4897C204.795 82.0156 205.387 81.8378 206.216 81.9564C206.572 82.0156 206.868 82.0749 207.223 82.1934C209.297 83.0822 211.074 85.9265 212.377 88.0004C212.614 88.4152 212.851 88.7707 213.088 89.067C214.51 91.2002 215.754 93.5112 216.998 96.0591C216.88 96.0591 216.82 96.0591 216.761 96.0591ZM299.52 129.42C299.579 129.361 299.639 129.242 299.698 129.183C299.698 129.242 299.698 129.242 299.698 129.301C299.579 129.301 299.52 129.361 299.52 129.42ZM300.764 127.642C300.883 127.464 301.001 127.346 301.06 127.168C301.12 127.168 301.12 127.168 301.179 127.168C301.001 127.405 300.883 127.524 300.764 127.642ZM224.462 69.1572C224.048 68.9794 223.633 69.0979 223.337 69.4535C223.041 69.809 223.041 70.283 223.278 70.6386C227.306 76.7419 229.913 83.497 231.038 90.7854C228.965 83.0229 225.943 76.2086 222.093 70.5201C217.176 63.2909 210.778 57.6617 203.55 54.1656C202.84 53.8101 202.129 53.5138 201.418 53.2175C199.937 52.6249 198.456 52.0916 197.034 51.7361C198.93 50.4918 200.825 49.4251 202.721 48.5363C206.216 46.9364 208.704 46.6401 211.193 47.7067C211.903 48.003 212.614 48.4178 213.384 48.9511C217.413 51.7954 221.263 55.884 224.877 60.98C230.268 68.6832 233.704 77.69 234.77 87.0523C234.593 87.2893 234.533 87.5264 234.593 87.8226C234.83 88.9485 234.948 89.8966 234.296 90.7262C234.178 90.9039 233.763 91.2002 233.348 91.4965C233.289 91.4965 233.23 91.5557 233.171 91.615C232.104 83.6748 229.32 76.2086 224.936 69.5127C224.818 69.335 224.64 69.2164 224.462 69.1572ZM256.452 74.4902C256.926 74.9642 257.4 75.4975 257.874 75.9716C259.948 78.3418 260.599 80.238 260.244 83.1415C259.948 85.5709 259.533 87.7634 258.94 89.6003C258.111 92.2075 256.985 94.0445 255.504 95.1703C254.26 96.1184 252.779 96.5332 251.18 96.8887C251.061 96.8887 250.943 96.948 250.824 97.0072C250.943 96.7702 251.121 96.5332 251.239 96.2962C252.246 94.5185 253.313 92.6816 254.32 90.9039C255.09 89.4818 255.919 87.8819 255.801 86.1635C255.741 85.6302 255.623 85.1562 255.386 84.6228C255.445 84.3858 255.327 84.1488 255.208 83.9118C254.438 82.9044 253.49 82.1341 252.602 81.3638C251.832 80.712 251.18 80.1787 250.528 79.4676C250.351 79.2306 250.173 79.0528 249.995 78.7566C250.291 78.7566 250.588 78.6381 250.765 78.401C251.061 78.1048 251.121 77.69 250.884 77.3344C250.41 76.3271 249.58 75.616 248.573 75.142C248.514 74.4309 248.514 73.7791 248.573 73.0681C248.573 72.8903 248.573 72.7125 248.514 72.5348C248.573 71.7644 248.573 70.9941 248.573 70.2831C251.713 72.2385 254.438 74.7865 256.571 77.8677C256.689 78.0455 256.808 78.164 256.985 78.2233C257.4 78.401 257.874 78.2825 258.17 77.927C258.467 77.5715 258.467 77.0974 258.23 76.7419C257.637 75.9716 257.045 75.2012 256.452 74.4902ZM310.657 63.5872C310.894 64.5353 311.072 65.4834 311.309 66.4907L311.546 67.498C313.797 78.3418 316.108 89.6003 312.731 100.444C311.665 103.94 310.184 107.495 308.347 111.11C308.229 110.399 308.288 109.629 308.288 108.858C308.288 107.969 308.347 107.081 308.169 106.133C307.873 104.355 307.044 102.933 306.096 101.629C303.489 98.0146 300.29 94.3407 296.499 90.7854C295.314 89.7188 294.07 88.593 292.471 87.2893C290.219 82.7267 289.686 77.8677 289.153 72.7125C288.975 70.9941 288.798 69.2165 288.501 67.4388C288.265 65.6611 287.909 63.7057 287.435 61.5133L287.376 61.0392C287.317 60.5652 287.198 60.1504 287.139 59.6763C286.961 58.906 286.843 58.0764 286.665 57.3061C288.087 61.8095 289.153 66.4314 289.864 71.1126C289.923 71.4682 290.16 71.7644 290.456 71.8829C290.812 72.0015 291.227 71.9422 291.523 71.7644C291.819 71.5274 291.937 71.2311 291.878 70.8756C290.042 58.7875 285.895 47.3512 279.615 36.7445C278.253 33.7817 276.476 30.3449 273.988 27.5007C272.862 26.2563 271.677 25.0712 270.729 24.1824C269.426 22.5825 268.182 21.2196 266.997 19.9752C263.857 16.6569 260.066 12.9831 255.445 10.6721L255.327 10.5536C255.208 10.4944 255.09 10.4351 254.971 10.3166C254.734 10.1388 254.438 10.0203 254.142 9.90182C254.023 9.84256 253.846 9.78331 253.727 9.72405C258.407 8.00565 264.983 7.17607 269.841 9.19075C270.552 9.48703 271.262 9.84256 271.855 10.2574C271.973 10.4351 272.151 10.6129 272.388 10.6721C272.743 10.8499 273.158 10.7906 273.514 10.5536C276.179 8.65746 279.497 8.24267 282.4 9.42777C282.459 9.42777 282.518 9.48703 282.637 9.54629C285.48 10.8499 287.139 13.5164 288.857 16.6569C290.99 20.5678 293.181 24.5971 295.255 28.4487C296.321 30.4042 297.328 32.3596 298.395 34.315C298.987 35.3816 299.52 36.4482 300.113 37.5148C302.305 41.4849 304.496 45.5736 306.392 49.7807C307.992 53.3953 309.295 57.4246 310.48 62.5206C310.302 62.8761 310.421 63.2909 310.657 63.5872ZM282.814 83.3785C282.163 83.4377 281.511 83.497 280.8 83.6748C278.786 84.0895 276.713 85.0376 274.284 86.519C271.914 88.0004 269.604 89.7781 267.53 91.7928C269.189 88.3559 270.374 85.0376 271.085 81.7786C271.381 80.475 271.559 79.1713 271.677 77.7492C272.151 77.927 272.625 78.164 273.099 78.3418C272.862 78.5195 272.684 78.8158 272.684 79.1121C272.684 79.5269 272.862 79.9417 273.277 80.1194C273.454 80.1787 273.691 80.238 273.869 80.1787L275.883 79.6454C276.002 79.7047 276.179 79.7639 276.298 79.8232C275.172 80.1787 274.106 80.7712 273.217 81.6601C272.98 81.8971 272.921 82.1934 272.98 82.4897C273.04 82.7859 273.277 83.0822 273.573 83.2007C273.988 83.3785 274.402 83.26 274.698 82.9637C276.12 81.5416 278.253 81.0675 280.149 81.8378L280.208 81.8971C281.156 82.3711 281.985 82.8452 282.814 83.3785ZM263.147 82.3119C262.969 82.8452 262.85 83.4377 262.613 83.971C262.673 83.5563 262.732 83.1415 262.732 82.7267C262.791 82.6674 262.85 82.6082 262.91 82.5489C263.028 82.4897 263.087 82.4304 263.147 82.3119ZM253.313 12.3905C254.438 12.8646 255.504 13.5757 256.749 14.6423C258.111 15.8274 259.414 17.0717 260.718 18.2568C261.369 18.8494 262.021 19.4419 262.673 20.0345C263.502 20.8048 264.331 21.5159 265.22 22.2862C267.175 24.0046 269.248 25.7823 271.085 27.7377C272.921 30.1079 274.758 32.6559 276.416 35.2631C279.734 41.2479 282.4 48.8326 284.414 57.7802C286.132 65.6019 286.902 73.6606 286.606 81.8378C286.487 81.7193 286.369 81.6008 286.191 81.5416C286.487 76.3864 286.073 71.2311 285.006 66.1944C284.947 65.8389 284.71 65.6019 284.414 65.4834C284.058 65.3649 283.644 65.4241 283.348 65.6611C283.051 65.8981 282.992 66.2537 283.051 66.6092C283.999 71.0534 284.414 75.616 284.236 80.1787C283.407 79.5861 282.518 79.0528 281.511 78.4603L281.452 78.401L281.037 73.6606C280.978 73.3051 280.8 73.0088 280.445 72.831C280.089 72.7125 279.734 72.7718 279.438 72.9495C279.141 73.1273 279.023 73.4828 279.023 73.8384L279.319 77.1567C279.26 77.1567 279.26 77.0974 279.201 77.0974C277.068 75.9716 274.876 74.7865 273.395 73.1273C272.684 68.4461 271.973 63.8242 271.144 59.3801V59.2616C271.144 59.143 271.085 59.0838 271.085 58.9653C271.085 58.9653 270.966 58.1949 270.907 58.0172C270.848 57.6617 270.67 57.4246 270.374 57.3061C269.663 56.2395 268.656 55.2914 267.708 54.4619C267.412 54.1656 267.056 53.8693 266.76 53.6323L261.962 49.0104C261.014 48.1215 260.125 47.1734 259.177 46.2254C257.222 44.2699 255.268 42.196 253.076 40.4776C255.268 40.8331 257.4 41.0701 259.592 41.1294C260.066 41.1294 260.54 40.8331 260.599 40.2998C260.718 39.8258 260.481 39.3517 260.066 39.174C259.948 39.1147 259.829 39.1147 259.711 39.1147C254.794 38.937 249.936 38.0481 245.315 36.5075L228.076 21.8714C228.55 21.7529 229.024 21.5751 229.439 21.3974C229.794 21.2196 230.031 20.8641 230.031 20.5085C230.031 20.0937 229.794 19.7382 229.379 19.5604C229.142 19.4419 228.846 19.4419 228.609 19.5604C227.839 19.916 227.01 20.153 226.121 20.2715L225.884 20.0937C224.996 19.3234 224.107 18.5531 223.218 17.7828C224.285 17.131 227.365 16.3014 233.526 15.7088H233.585C237.318 15.3533 241.168 15.2941 245.078 15.6496C245.552 15.7088 246.026 15.3533 246.144 14.8793C246.263 14.4052 246.026 13.9312 245.611 13.7534C245.493 13.6942 245.434 13.6942 245.315 13.6942C240.28 13.2794 235.303 13.4571 230.564 14.1089L230.031 14.1682C227.721 14.5237 225.351 14.82 223.159 15.5903C222.685 15.7681 222.093 16.0051 221.619 16.4199C220.967 15.8866 220.375 15.4126 219.782 14.9978C224.759 14.0497 229.676 13.3386 234.415 12.7461L234.711 13.0424C234.83 13.1609 234.948 13.2201 235.066 13.2794C235.422 13.4571 235.837 13.3386 236.133 13.1016C236.311 12.9238 236.429 12.7461 236.488 12.5091C240.339 12.0943 244.071 11.798 247.744 11.6795C250.232 11.561 251.832 11.798 253.313 12.3905ZM146.976 18.6716C146.62 18.6716 146.265 18.6124 145.909 18.5531C148.871 10.9684 156.691 6.70203 163.622 2.85043L164.926 2.13936C173.042 -2.36404 181.335 -6.8082 189.57 -11.0153L190.34 -11.3709C193.954 -13.2078 197.686 -15.1632 201.714 -14.5114C202.603 -14.3929 203.491 -14.0966 204.38 -13.7411C207.638 -12.3782 210.363 -9.88947 213.088 -7.46C213.444 -7.16373 213.799 -6.8082 214.155 -6.51192C220.138 -1.11968 226.299 4.62809 232.401 10.6129C227.187 11.2647 222.093 12.0943 217.176 13.0424C215.399 11.9165 213.74 11.0277 212.022 10.3166C210.896 9.84256 209.771 9.48703 208.645 9.19075C203.373 7.82788 197.863 7.88713 192.65 9.42777C190.399 10.0796 188.266 11.0277 186.252 11.9758C185.127 12.5091 183.942 13.0424 182.757 13.4571C181.691 13.8719 180.624 14.2867 179.617 14.6423C177.662 15.4126 175.648 16.1236 173.693 17.0125C172.568 17.5458 171.442 18.0791 170.317 18.7309C173.693 16.3607 176.892 14.1682 180.091 12.035C180.387 11.8572 180.565 11.5017 180.506 11.1462C180.447 10.7906 180.21 10.4351 179.854 10.3166C179.558 10.1981 179.203 10.1981 178.906 10.4351C174.404 13.3979 169.783 16.5977 165.163 19.916C161.075 19.0864 156.81 18.9679 152.722 18.8494C151.596 18.7901 150.412 18.7901 149.227 18.7309C151.537 14.6422 154.973 11.3832 159.179 9.30927C159.535 9.1315 159.772 8.77597 159.772 8.36118C159.772 7.94639 159.535 7.59086 159.179 7.41309C158.942 7.29458 158.646 7.29458 158.409 7.47235C153.492 9.84256 149.582 13.6942 147.035 18.5531L146.976 18.6716ZM316.937 67.7351C316.463 69.2757 316.345 70.8756 316.226 72.4755C316.226 72.8903 316.167 73.2458 316.167 73.6606L315.811 77.8085C315.634 76.5641 315.397 75.379 315.16 74.1939C314.982 73.1273 314.745 72.0607 314.567 70.9941C314.745 70.9349 314.864 70.8756 315.041 70.6978C315.337 70.4016 315.397 69.9868 315.219 69.6312C314.982 69.1572 314.982 68.5646 315.219 68.0313C315.397 67.6166 315.693 67.261 316.048 67.024C316.285 67.261 316.582 67.498 316.937 67.7351ZM322.802 72.12C322.387 72.2977 322.032 72.594 321.676 72.9495C321.084 73.5421 320.728 74.2532 320.432 75.0235V74.905C320.432 74.668 320.491 74.4309 320.491 74.1939C320.61 73.068 320.669 71.6459 321.439 71.0534L322.802 72.12ZM314.271 65.8981C314.034 66.0759 313.856 66.3129 313.738 66.55C313.679 66.1352 313.56 65.7796 313.501 65.3649C313.738 65.5426 314.034 65.7204 314.271 65.8981ZM226.121 23.0565C227.424 24.2416 228.728 25.4267 230.09 26.5526L242.412 37.0408C238.265 34.5521 234.415 31.4115 229.557 26.6711L229.32 26.4341C227.958 25.0712 226.536 23.7083 225.055 22.3454C225.173 22.4047 225.292 22.4047 225.41 22.4047L226.121 23.0565Z" fill="#EDD4B2"/>
</svg>
