<svg width="90" height="90" viewBox="0 0 90 90" fill="none" xmlns="http://www.w3.org/2000/svg">
<path d="M25.9063 24.4376V27.3751H27.3751C28.5433 27.3738 29.6632 26.9091 30.4893 26.0831C31.3153 25.2571 31.78 24.1371 31.7813 22.9689V21.5001H28.8438V22.9689C28.8434 23.3583 28.6885 23.7316 28.4131 24.007C28.1378 24.2823 27.7645 24.4372 27.3751 24.4376H25.9063Z" fill="#EDD4B2"/>
<path d="M25.9063 20.0314C26.7175 20.0314 27.3751 19.3738 27.3751 18.5626C27.3751 17.7515 26.7175 17.0939 25.9063 17.0939C25.0951 17.0939 24.4376 17.7515 24.4376 18.5626C24.4376 19.3738 25.0951 20.0314 25.9063 20.0314Z" fill="#EDD4B2"/>
<path d="M33.2501 20.0314C34.0612 20.0314 34.7188 19.3738 34.7188 18.5626C34.7188 17.7515 34.0612 17.0939 33.2501 17.0939C32.4389 17.0939 31.7813 17.7515 31.7813 18.5626C31.7813 19.3738 32.4389 20.0314 33.2501 20.0314Z" fill="#EDD4B2"/>
<path d="M55.2813 9.75014C56.0925 9.75014 56.7501 9.09256 56.7501 8.28139C56.7501 7.47022 56.0925 6.81264 55.2813 6.81264C54.4701 6.81264 53.8126 7.47022 53.8126 8.28139C53.8126 9.09256 54.4701 9.75014 55.2813 9.75014Z" fill="#EDD4B2"/>
<path d="M67.0313 9.75014C67.8425 9.75014 68.5001 9.09256 68.5001 8.28139C68.5001 7.47022 67.8425 6.81264 67.0313 6.81264C66.2201 6.81264 65.5626 7.47022 65.5626 8.28139C65.5626 9.09256 66.2201 9.75014 67.0313 9.75014Z" fill="#EDD4B2"/>
<path d="M68.5001 21.5001H65.5626V24.4376H68.5001V21.5001Z" fill="#EDD4B2"/>
<path d="M62.6251 21.5001H59.6876V24.4376H62.6251V21.5001Z" fill="#EDD4B2"/>
<path d="M87.5938 11.2188H81.7188C81.4907 11.2188 81.2658 11.2719 81.0618 11.3739L74.375 14.7173V14.1563C74.375 13.7668 74.2203 13.3932 73.9448 13.1178C73.6694 12.8423 73.2958 12.6876 72.9063 12.6876H72.9022C73.482 11.9164 73.9041 11.0386 74.1444 10.1042C74.3847 9.16976 74.4384 8.19716 74.3024 7.24199C74.1665 6.28681 73.8436 5.3678 73.3522 4.53752C72.8609 3.70723 72.2106 2.98195 71.4387 2.40316C70.6668 1.82437 69.7884 1.40343 68.8537 1.1644C67.919 0.92537 66.9463 0.872948 65.9913 1.01013C65.0363 1.14731 64.1177 1.47141 63.2881 1.96388C62.4585 2.45635 61.734 3.10754 61.1563 3.88021C60.5785 3.10754 59.8541 2.45635 59.0244 1.96388C58.1948 1.47141 57.2762 1.14731 56.3212 1.01013C55.3662 0.872948 54.3936 0.92537 53.4588 1.1644C52.5241 1.40343 51.6457 1.82437 50.8738 2.40316C50.1019 2.98195 49.4516 3.70723 48.9603 4.53752C48.4689 5.3678 48.146 6.28681 48.0101 7.24199C47.8742 8.19716 47.9279 9.16976 48.1681 10.1042C48.4084 11.0386 48.8305 11.9164 49.4103 12.6876H49.4063C49.0167 12.6876 48.6431 12.8423 48.3677 13.1178C48.0923 13.3932 47.9375 13.7668 47.9375 14.1563V28.8438C47.9375 29.2334 48.0923 29.6069 48.3677 29.8824C48.6431 30.1578 49.0167 30.3126 49.4063 30.3126H53.8125C53.8126 31.4521 54.0781 32.5759 54.588 33.5949C55.0979 34.614 55.8381 35.5003 56.75 36.1835V43.5313H53.8125C53.423 43.5313 53.0494 43.6861 52.774 43.9615C52.4985 44.237 52.3438 44.6105 52.3438 45.0001V46.1222L50.1939 41.8224C49.431 40.2997 48.1637 39.0886 46.6079 38.3956L35.7968 33.5906L35.369 32.7349C36.9758 31.6622 38.2932 30.2098 39.2046 28.5063C40.1159 26.8028 40.5931 24.9008 40.5938 22.9688V8.28132C40.5915 6.33432 39.8171 4.46769 38.4404 3.09095C37.0636 1.71421 35.197 0.939786 33.25 0.937575H24.4375C22.4905 0.939786 20.6239 1.71421 19.2471 3.09095C17.8704 4.46769 17.096 6.33432 17.0938 8.28132V22.9688C17.0944 24.9008 17.5716 26.8028 18.483 28.5063C19.3943 30.2098 20.7118 31.6622 22.3186 32.7349L21.8582 33.6555L10.7304 39.8378C9.35763 40.6044 8.26502 41.7886 7.61125 43.2185L1.06911 57.611C0.985853 57.7943 0.941141 57.9927 0.937747 58.1939C0.934354 58.3951 0.972352 58.5949 1.04938 58.7809C1.12641 58.9668 1.24083 59.135 1.38555 59.2748C1.53026 59.4147 1.70217 59.5234 1.89062 59.5941L3.61154 60.2394L1.01281 68.0356C0.932038 68.2781 0.915908 68.5375 0.966017 68.7881L2.43477 76.1319C2.48931 76.4045 2.62013 76.6561 2.81202 76.8574C3.00392 77.0586 3.24899 77.2013 3.51876 77.2687L12.6875 79.5609V87.5938C12.6875 87.9834 12.8423 88.3569 13.1177 88.6324C13.3931 88.9078 13.7667 89.0626 14.1563 89.0626H43.5313C43.9205 89.0626 44.2937 88.9081 44.5691 88.6331C44.8445 88.3581 44.9995 87.985 45 87.5958L45.0321 63.9221L47.1228 65.3159C47.3641 65.4767 47.6475 65.5626 47.9375 65.5626H50.9281L47.951 87.3954C47.9226 87.6031 47.9391 87.8145 47.9992 88.0153C48.0594 88.2161 48.1618 88.4018 48.2997 88.5597C48.4376 88.7176 48.6077 88.8442 48.7985 88.931C48.9894 89.0177 49.1966 89.0626 49.4063 89.0626H52.3438C52.6682 89.0626 52.9835 88.9551 53.2404 88.757C53.4974 88.559 53.6815 88.2814 53.7641 87.9676L57.7276 72.9063H66.0537L70.0172 87.9676C70.0998 88.2814 70.2839 88.559 70.5408 88.757C70.7978 88.9551 71.1131 89.0626 71.4375 89.0626H74.375C74.5847 89.0626 74.7919 89.0177 74.9827 88.931C75.1736 88.8442 75.3437 88.7176 75.4816 88.5597C75.6194 88.4017 75.7219 88.2161 75.782 88.0153C75.8422 87.8145 75.8587 87.6031 75.8303 87.3953L71.6514 56.7501H77.3125C77.5853 56.7501 77.8526 56.6741 78.0847 56.5307C78.3167 56.3873 78.5042 56.1821 78.6262 55.9382L81.3448 50.5011L83.8444 49.2512C84.0884 49.1292 84.2935 48.9417 84.4369 48.7097C84.5803 48.4777 84.6563 48.2103 84.6563 47.9376V43.5313C84.6562 43.1418 84.5015 42.7682 84.2261 42.4928C83.9506 42.2173 83.577 42.0626 83.1875 42.0626H71.4375C71.048 42.0626 70.6743 42.2173 70.3989 42.4928L69.3603 43.5313H65.5625V36.1835C66.4744 35.5003 67.2147 34.614 67.7245 33.5949C68.2344 32.5759 68.4999 31.4521 68.5 30.3126H72.9063C73.2958 30.3126 73.6694 30.1578 73.9448 29.8824C74.2203 29.6069 74.375 29.2334 74.375 28.8438V28.2828L81.0618 31.6262C81.2658 31.7282 81.4907 31.7813 81.7188 31.7813H87.5938C87.9833 31.7813 88.3569 31.6266 88.6323 31.3511C88.9078 31.0757 89.0625 30.7021 89.0625 30.3126V12.6876C89.0625 12.298 88.9078 11.9245 88.6323 11.649C88.3569 11.3736 87.9833 11.2188 87.5938 11.2188ZM67.0313 3.87507C67.9027 3.87507 68.7546 4.1335 69.4792 4.61766C70.2038 5.10183 70.7686 5.78999 71.1021 6.59513C71.4356 7.40026 71.5229 8.28621 71.3528 9.14094C71.1828 9.99567 70.7632 10.7808 70.1469 11.397C69.5307 12.0132 68.7456 12.4329 67.8909 12.6029C67.0361 12.7729 66.1502 12.6857 65.3451 12.3522C64.5399 12.0187 63.8518 11.4539 63.3676 10.7293C62.8834 10.0047 62.625 9.1528 62.625 8.28132C62.6263 7.11312 63.091 5.99315 63.917 5.16711C64.7431 4.34107 65.8631 3.87641 67.0313 3.87507ZM50.875 8.28132C50.875 7.40985 51.1334 6.55795 51.6176 5.83334C52.1018 5.10874 52.7899 4.54398 53.5951 4.21048C54.4002 3.87698 55.2861 3.78972 56.1409 3.95974C56.9956 4.12976 57.7807 4.54941 58.3969 5.16564C59.0132 5.78186 59.4328 6.56698 59.6028 7.42171C59.7729 8.27644 59.6856 9.16239 59.3521 9.96752C59.0186 10.7727 58.4538 11.4608 57.7292 11.945C57.0046 12.4292 56.1527 12.6876 55.2813 12.6876C54.1131 12.6862 52.9931 12.2216 52.167 11.3955C51.341 10.5695 50.8763 9.44952 50.875 8.28132ZM20.0313 8.28132C20.0326 7.11312 20.4973 5.99315 21.3233 5.16711C22.1493 4.34107 23.2693 3.87641 24.4375 3.87507H33.25C34.4182 3.87641 35.5382 4.34107 36.3642 5.16711C37.1903 5.99315 37.6549 7.11312 37.6563 8.28132V10.9816C36.9719 10.7539 36.3501 10.3697 35.8402 9.85968C35.3303 9.34962 34.9463 8.72771 34.7188 8.04331L34.6435 7.81723C34.5566 7.55633 34.3982 7.32506 34.1864 7.14974C33.9745 6.97443 33.7177 6.86211 33.4451 6.82558C33.1726 6.78905 32.8953 6.82976 32.6447 6.94309C32.3942 7.05642 32.1805 7.23782 32.028 7.46662C31.2595 8.6219 30.2172 9.5691 28.9939 10.2238C27.7706 10.8785 26.4043 11.2203 25.0168 11.2188H20.0313V8.28132ZM20.0313 22.9688V14.1563H25.0168C27.9719 14.1595 30.8115 13.009 32.9309 10.9497C34.0537 12.5399 35.746 13.6365 37.6563 14.0116V22.9688C37.6563 25.306 36.7278 27.5475 35.0751 29.2002C33.4225 30.8529 31.181 31.7813 28.8438 31.7813C26.5065 31.7813 24.265 30.8529 22.6124 29.2002C20.9597 27.5475 20.0313 25.306 20.0313 22.9688ZM28.8438 34.7188C30.1719 34.7193 31.4905 34.4935 32.7428 34.0511L33.4051 35.3757C33.5575 35.6803 33.811 35.9226 34.1223 36.061L35.2185 36.5482L32.8199 38.9469C31.7654 40.0014 30.3352 40.5938 28.8439 40.5938C27.3526 40.5938 25.9223 40.0014 24.8678 38.9469L22.5516 36.6307L23.682 36.0027C23.9408 35.859 24.1501 35.6405 24.2824 35.3757L24.9447 34.0511C26.197 34.4935 27.5156 34.7193 28.8438 34.7188ZM3.92306 68.5945L6.36401 61.2716L12.6875 63.6429V66.6923L10.3286 65.6814L9.17144 68.3813L12.6875 69.8882V69.9688H12.8757L19.4527 72.7875C19.7258 72.9045 20.028 72.936 20.3194 72.8778L26.8924 71.5632L28.632 73.303L26.3165 80.2501H19.1708L16.6636 77.7428C16.4754 77.5545 16.2395 77.421 15.9813 77.3564L5.13291 74.6444L3.92306 68.5945ZM31.5743 72.1589C31.5124 72.0529 31.4374 71.9551 31.3511 71.8678L28.4136 68.9303C28.2426 68.7593 28.0321 68.6331 27.8006 68.5631C27.5692 68.493 27.324 68.4811 27.0869 68.5286L20.1905 69.9079L18.3025 69.0988C20.3163 66.3683 21.4322 63.0797 21.4962 59.6876H36.1423C35.8712 64.2018 34.2831 68.5376 31.5743 72.1589ZM42.1136 49.9392L42.0645 86.1251H15.625V80.8584L17.5239 82.7574C17.7993 83.0328 18.1729 83.1876 18.5625 83.1876H27.375C27.6833 83.1876 27.9837 83.0906 28.2338 82.9103C28.4839 82.7301 28.671 82.4757 28.7685 82.1833L30.1276 78.1058L31.425 76.8086C33.8739 74.373 35.8153 71.4759 37.137 68.285C38.4587 65.094 39.1344 61.6726 39.125 58.2188C39.125 57.8293 38.9703 57.4557 38.6948 57.1803C38.4194 56.9048 38.0458 56.7501 37.6563 56.7501H20.0313C19.6417 56.7501 19.2681 56.9048 18.9927 57.1803C18.7173 57.4557 18.5625 57.8293 18.5625 58.2188V59.3312C18.5702 62.3937 17.5341 65.3673 15.625 67.7619V50.8751H12.6875V60.5057L4.39388 57.3955L10.2856 44.4341C10.6777 43.5761 11.3332 42.8656 12.1568 42.4056L19.881 38.1144L22.7907 41.0241C24.3961 42.6295 26.5735 43.5313 28.8439 43.5313C31.1142 43.5313 33.2916 42.6294 34.897 41.024L38.0945 37.8265L45.4149 41.08C46.3483 41.4957 47.1087 42.2223 47.5664 43.1359L52.1704 52.3438L47.3679 61.9489L45.0369 60.3949L45.0511 49.9431L42.1136 49.9392ZM51.2115 86.1251H51.0889L53.8928 65.5626H56.6228L51.2115 86.1251ZM58.5007 69.9688L59.8943 64.673L63.2289 62.1722L65.2806 69.9688H58.5007ZM72.5697 86.1251L65.7656 60.2696L68.8511 57.9556L72.6924 86.1251H72.5697ZM72.0458 45.0001H81.7188V47.0298L79.5931 48.0927C79.3089 48.2348 79.0784 48.4653 78.9363 48.7495L76.4048 53.8126H69.9688C69.651 53.8126 69.3418 53.9157 69.0875 54.1063L57.7291 62.6251H50.314L54.8241 53.6049L65.9188 50.8312C66.177 50.7667 66.4129 50.6331 66.6011 50.4449L72.0458 45.0001ZM64.8116 48.0801L55.2813 50.4627V46.4688H66.4229L64.8116 48.0801ZM62.625 43.5313H59.6875V37.5085C60.6568 37.7056 61.6558 37.7056 62.625 37.5085V43.5313ZM61.1563 34.7188C59.9881 34.7175 58.8681 34.2528 58.042 33.4268C57.216 32.6007 56.7513 31.4808 56.75 30.3126H65.5625C65.5612 31.4808 65.0965 32.6007 64.2705 33.4268C63.4444 34.2528 62.3245 34.7175 61.1563 34.7188ZM71.4375 27.3751H50.875V15.6251H71.4375V27.3751ZM74.375 18.0016L80.25 15.0641V27.9361L74.375 24.9986V18.0016ZM86.125 28.8438H83.1875V14.1563H86.125V28.8438Z" fill="#EDD4B2"/>
</svg>
