<svg width="94" height="94" viewBox="0 0 94 94" fill="none" xmlns="http://www.w3.org/2000/svg">
<path d="M83.9704 17.9806H86.8748C87.888 17.9806 88.7095 17.159 88.7095 16.1458C88.7095 15.1327 87.888 14.3111 86.8748 14.3111H79.9028C78.8897 14.3111 78.0681 15.1327 78.0681 16.1458V23.1178C78.0681 24.131 78.8897 24.9526 79.9028 24.9526C80.916 24.9526 81.7376 24.131 81.7376 23.1178V21.0991C87.3045 28.5519 90.3305 37.5948 90.3305 47C90.3305 70.8926 70.8926 90.3305 47 90.3305C23.1074 90.3305 3.66947 70.8926 3.66947 47C3.66947 23.1074 23.1074 3.66947 47 3.66947C48.767 3.66947 50.5454 3.7768 52.2862 3.98834C53.2908 4.1098 54.2068 3.39444 54.329 2.38846C54.4514 1.38266 53.7351 0.467857 52.7291 0.345664C50.8419 0.116322 48.9145 0 47 0C34.4458 0 22.643 4.88883 13.766 13.766C4.88883 22.643 0 34.4458 0 47C0 59.5542 4.88883 71.357 13.766 80.234C22.643 89.1112 34.4458 94 47 94C59.5542 94 71.357 89.1112 80.234 80.234C89.1112 71.357 94 59.5542 94 47C94 36.4061 90.4608 26.2358 83.9704 17.9806Z" fill="#EDD4B2"/>
<path d="M19.9017 27.7068C19.0454 27.1648 17.9121 27.4198 17.37 28.2756C13.1815 34.8909 11.3273 42.8466 12.149 50.6775C12.9829 58.6244 16.5597 66.1186 22.2206 71.7797C29.0523 78.6113 38.0261 82.0272 47.0002 82.0272C55.9742 82.0272 64.9479 78.6115 71.7797 71.7797C85.4432 58.1162 85.4432 35.884 71.7797 22.2208C66.1275 16.5687 58.6456 12.9931 50.7118 12.1528C42.8955 11.3245 34.9484 13.1641 28.3358 17.3321C27.4784 17.8724 27.2218 19.0054 27.7619 19.8626C28.3022 20.7199 29.4352 20.9766 30.2924 20.4365C42.7572 12.5801 58.75 14.3806 69.1849 24.8154C81.4176 37.0481 81.4176 56.9521 69.1849 69.1848C56.9523 81.4177 37.048 81.4177 24.8155 69.1848C14.5248 58.8941 12.6974 42.5149 20.4705 30.2387C21.0123 29.3825 20.7578 28.249 19.9017 27.7068Z" fill="#EDD4B2"/>
<path d="M70.8517 48.8645H73.1143C74.1274 48.8645 74.949 48.0429 74.949 47.0298C74.949 46.0166 74.1274 45.195 73.1143 45.195H70.8517C69.8386 45.195 69.017 46.0166 69.017 47.0298C69.017 48.0429 69.8384 48.8645 70.8517 48.8645Z" fill="#EDD4B2"/>
<path d="M19.0509 46.9702C19.0509 47.9834 19.8725 48.805 20.8856 48.805H23.1482C24.1614 48.805 24.983 47.9834 24.983 46.9702C24.983 45.9571 24.1614 45.1355 23.1482 45.1355H20.8856C19.8725 45.1355 19.0509 45.9569 19.0509 46.9702Z" fill="#EDD4B2"/>
<path d="M48.8645 23.1483V20.8857C48.8645 19.8726 48.0429 19.051 47.0298 19.051C46.0166 19.051 45.195 19.8726 45.195 20.8857V23.1483C45.195 24.1614 46.0166 24.983 47.0298 24.983C48.0429 24.983 48.8645 24.1614 48.8645 23.1483Z" fill="#EDD4B2"/>
<path d="M45.1356 70.8517V73.1143C45.1356 74.1274 45.9572 74.949 46.9703 74.949C47.9834 74.949 48.805 74.1274 48.805 73.1143V70.8517C48.805 69.8386 47.9834 69.017 46.9703 69.017C45.9572 69.017 45.1356 69.8384 45.1356 70.8517Z" fill="#EDD4B2"/>
<path d="M37.8036 35.2088C37.087 34.4925 35.9256 34.4925 35.2088 35.2088C34.4923 35.9252 34.4923 37.087 35.2088 37.8036L41.4269 44.0217C40.9504 44.9097 40.6794 45.9238 40.6794 47C40.6794 50.4853 43.5148 53.3207 47 53.3207C50.4853 53.3207 53.3207 50.4853 53.3207 47C53.3207 45.9238 53.0495 44.9097 52.5732 44.0217L65.1197 31.4753C65.8361 30.7588 65.8361 29.597 65.1197 28.8804C64.403 28.1641 63.2416 28.1641 62.5248 28.8804L49.9784 41.4269C49.0903 40.9504 48.0763 40.6794 47 40.6794C45.9238 40.6794 44.9097 40.9506 44.0217 41.4269L37.8036 35.2088ZM49.6512 47C49.6512 48.462 48.462 49.6512 47 49.6512C45.5381 49.6512 44.3488 48.462 44.3488 47C44.3488 45.5381 45.5381 44.3488 47 44.3488C48.462 44.3488 49.6512 45.5381 49.6512 47Z" fill="#EDD4B2"/>
<path d="M24.8144 24.8143C25.1575 24.4731 25.3536 23.9997 25.3536 23.5172C25.3536 23.0346 25.1575 22.5631 24.8144 22.22C24.4731 21.8789 24.0014 21.6824 23.5172 21.6824C23.0347 21.6824 22.5613 21.8788 22.2201 22.22C21.879 22.5613 21.6825 23.0346 21.6825 23.5172C21.6825 24.0015 21.8788 24.4731 22.2201 24.8143C22.5613 25.1554 23.0347 25.3519 23.5172 25.3519C24.0014 25.3519 24.4731 25.1554 24.8144 24.8143Z" fill="#EDD4B2"/>
<path d="M59.7092 5.4818C60.1938 5.4818 60.6671 5.28714 61.0082 4.94423C61.3495 4.60297 61.546 4.13126 61.546 3.64707C61.546 3.16453 61.3497 2.69117 61.0082 2.34991C60.6671 2.00884 60.1938 1.81234 59.7092 1.81234C59.2267 1.81234 58.7533 2.00865 58.4123 2.34991C58.071 2.69117 57.8745 3.16453 57.8745 3.64707C57.8745 4.13144 58.0708 4.60297 58.4123 4.94423C58.7533 5.28714 59.2267 5.4818 59.7092 5.4818Z" fill="#EDD4B2"/>
</svg>
