<svg width="88" height="88" viewBox="0 0 88 88" fill="none" xmlns="http://www.w3.org/2000/svg">
<path d="M87.8382 20.8676C87.5354 19.7413 86.7964 18.7811 85.7854 18.199C84.7737 17.614 83.5707 17.4558 82.4423 17.7587C81.3153 18.0622 80.3551 18.8005 79.7729 19.8115L79.0397 21.0874C78.343 20.6872 77.453 20.9228 77.0456 21.6159L73.3209 27.9649L72.0449 27.2316C71.7069 27.0362 71.3045 26.9832 70.9279 27.0849C70.5506 27.1873 70.2298 27.435 70.0357 27.7744C69.6383 28.4754 69.8804 29.3661 70.5785 29.7685L71.8544 30.5017L59.3899 52.102L56.3103 60.3291L54.8439 63.0708C53.9853 64.5644 54.077 66.4211 55.0787 67.8223L51.7793 71.8693L50.8556 69.5529C50.4389 68.5204 49.4744 67.813 48.3653 67.7264C47.2554 67.639 46.1921 68.1875 45.62 69.142L45.0923 70.0363L44.594 64.1706C44.4794 62.7829 43.4047 61.6674 42.0227 61.4998C40.6401 61.333 39.3312 62.1614 38.8894 63.4818L35.2821 74.3038C35.0301 75.0692 35.4425 75.8941 36.2058 76.1518C36.349 76.2184 36.5029 76.2585 36.6604 76.2685C37.2905 76.2707 37.8519 75.869 38.0538 75.2718L41.6461 64.4499L42.1595 70.4029C42.2655 71.6731 43.1784 72.7292 44.42 73.0171C45.6616 73.3049 46.9461 72.7579 47.5998 71.6645L48.1426 70.7695L49.0519 73.0722C49.4379 74.0424 50.3107 74.7348 51.3439 74.8888C52.3772 75.0427 53.414 74.6353 54.067 73.8197L57.4838 69.4942C57.8619 69.593 58.2514 69.6425 58.6424 69.641C60.214 69.6532 61.6733 68.8255 62.4695 67.47L63.9359 65.0212L69.5231 58.2319L82.1194 36.3674L83.3953 37.1006C83.7354 37.2954 83.9832 37.6169 84.0841 37.9956C84.1858 38.3715 84.1328 38.7725 83.9381 39.1098L78.0724 49.2723C77.8511 49.606 77.776 50.0155 77.8647 50.4065C77.9535 50.7967 78.1977 51.134 78.5414 51.3395C78.8794 51.5356 79.2818 51.5886 79.6584 51.487C80.0357 51.3846 80.3565 51.1368 80.5506 50.7974L86.4162 40.6349C87.0012 39.6232 87.1594 38.4202 86.8559 37.2918C86.5523 36.1648 85.814 35.2046 84.803 34.6224L83.5271 33.8892L87.1931 27.5395C87.5934 26.8428 87.3578 25.9535 86.6654 25.5454L87.3986 24.2695C87.9993 23.242 88.1583 22.0147 87.8382 20.8676ZM82.3098 21.2779C82.5039 20.9385 82.8261 20.6901 83.2048 20.5891C83.5815 20.496 83.9796 20.5483 84.319 20.7359C84.6591 20.9299 84.9068 21.2521 85.0085 21.6302C85.1016 22.0068 85.0493 22.4049 84.8617 22.7443L84.1285 24.0203L81.5766 22.5539L82.3098 21.2779ZM62.3227 62.2209L59.4193 60.5339L61.5015 54.9618L66.1205 57.6304L62.3227 62.2209ZM57.9235 66.4583C57.3041 66.0265 57.1137 65.1959 57.4838 64.5372L58.217 63.262L60.7682 64.7284L60.035 65.9893C59.8295 66.3459 59.4844 66.5993 59.0827 66.6889C58.681 66.7776 58.2607 66.6946 57.9235 66.4583ZM67.7924 55.226L62.7187 52.2932L74.45 31.9681L79.5238 34.901L67.7924 55.226ZM80.9902 32.3641L75.9164 29.4313L78.8493 24.3575L83.923 27.2904L80.9902 32.3641Z" fill="#EDD4B2"/>
<path d="M23.1396 65.7251L17.9491 70.9019L14.8401 67.793C14.268 67.2244 13.3444 67.2244 12.7723 67.793C12.4945 68.0686 12.3384 68.4431 12.3384 68.8341C12.3384 69.225 12.4945 69.6002 12.7723 69.8752L15.8812 72.9841C16.4312 73.5297 17.1744 73.8355 17.9491 73.8348C18.7282 73.8391 19.4778 73.5333 20.0313 72.9841L25.2075 67.793C25.7058 67.2108 25.6722 66.3437 25.1308 65.8024C24.5888 65.2604 23.7217 65.2267 23.1396 65.7251Z" fill="#EDD4B2"/>
<path d="M5.86563 69.6698C5.86563 76.5543 11.4463 82.1343 18.3302 82.1343C25.214 82.1343 30.7947 76.5543 30.7947 69.6698C30.7947 68.8599 30.1381 68.2034 29.3283 68.2034C28.5185 68.2034 27.8619 68.8599 27.8619 69.6698C27.8619 74.934 23.5944 79.2015 18.3302 79.2015C13.066 79.2015 8.79847 74.934 8.79847 69.6698C8.79847 64.4056 13.066 60.1381 18.3302 60.1381C20.3938 60.1323 22.4022 60.8018 24.0491 62.0448C24.6971 62.531 25.6164 62.3993 26.1019 61.7513C26.5881 61.1033 26.457 60.1846 25.809 59.6984C22.032 56.8658 16.9783 56.4104 12.7559 58.5213C8.53282 60.6328 5.86563 64.949 5.86563 69.6698Z" fill="#EDD4B2"/>
<path d="M52.7909 11.7462C53.6008 11.7462 54.2573 11.0904 54.2573 10.2798C54.2573 9.47 53.6008 8.81341 52.7909 8.81341H14.6641C13.8543 8.81341 13.1977 9.47 13.1977 10.2798V16.1455C13.1977 16.956 13.8543 17.6119 14.6641 17.6119H52.7909C53.6008 17.6119 54.2573 16.956 54.2573 16.1455C54.2573 15.3357 53.6008 14.6791 52.7909 14.6791H16.1305V11.7462H52.7909Z" fill="#EDD4B2"/>
<path d="M19.0633 20.5447C18.2535 20.5447 17.5969 21.2013 17.5969 22.0111C17.5969 22.8217 18.2535 23.4776 19.0633 23.4776H48.3916C49.2015 23.4776 49.8581 22.8217 49.8581 22.0111C49.8581 21.2013 49.2015 20.5447 48.3916 20.5447H19.0633Z" fill="#EDD4B2"/>
<path d="M57.1904 30.8096H24.9292C24.1194 30.8096 23.4628 31.4662 23.4628 32.2761C23.4628 33.0866 24.1194 33.7425 24.9292 33.7425H57.1904C58.0002 33.7425 58.6568 33.0866 58.6568 32.2761C58.6568 31.4662 58.0002 30.8096 57.1904 30.8096Z" fill="#EDD4B2"/>
<path d="M42.5263 41.0745C42.5263 40.2647 41.8697 39.6081 41.0599 39.6081H11.7315C10.9217 39.6081 10.2651 40.2647 10.2651 41.0745C10.2651 41.8851 10.9217 42.5409 11.7315 42.5409H41.0599C41.8697 42.5409 42.5263 41.8851 42.5263 41.0745Z" fill="#EDD4B2"/>
<path d="M57.1901 39.6081H46.9252C46.1154 39.6081 45.4588 40.2647 45.4588 41.0745C45.4588 41.8851 46.1154 42.5409 46.9252 42.5409H57.1901C57.9999 42.5409 58.6565 41.8851 58.6565 41.0745C58.6565 40.2647 57.9999 39.6081 57.1901 39.6081Z" fill="#EDD4B2"/>
<path d="M26.3957 49.8731C27.2055 49.8731 27.8621 49.2173 27.8621 48.4067C27.8621 47.5969 27.2055 46.9403 26.3957 46.9403H11.7315C10.9217 46.9403 10.2651 47.5969 10.2651 48.4067C10.2651 49.2173 10.9217 49.8731 11.7315 49.8731H26.3957Z" fill="#EDD4B2"/>
<path d="M32.2612 49.8731H42.5261C43.336 49.8731 43.9926 49.2173 43.9926 48.4067C43.9926 47.5969 43.336 46.9403 42.5261 46.9403H32.2612C31.4514 46.9403 30.7948 47.5969 30.7948 48.4067C30.7948 49.2173 31.4514 49.8731 32.2612 49.8731Z" fill="#EDD4B2"/>
<path d="M65.9888 67.4708C65.1789 67.4708 64.5223 68.1274 64.5223 68.9372V83.6014C64.5223 84.4119 63.8657 85.0678 63.0559 85.0678H4.39925C3.58943 85.0678 2.93283 84.4119 2.93283 83.6014V4.41488C2.93283 3.60505 3.58943 2.94846 4.39925 2.94846H63.0559C63.8657 2.94846 64.5223 3.60505 64.5223 4.41488V31.9546C64.5223 32.7644 65.1789 33.421 65.9888 33.421C66.7986 33.421 67.4552 32.7644 67.4552 31.9546V4.41488C67.4552 1.98541 65.4854 0.015625 63.0559 0.015625H4.39925C1.96978 0.015625 0 1.98541 0 4.41488V83.6014C0 86.0316 1.96978 88.0006 4.39925 88.0006H63.0559C65.4854 88.0006 67.4552 86.0316 67.4552 83.6014V68.9372C67.4552 68.1274 66.7986 67.4708 65.9888 67.4708Z" fill="#EDD4B2"/>
</svg>
