<svg width="29" height="29" viewBox="0 0 29 29" fill="none" xmlns="http://www.w3.org/2000/svg">
    <circle cx="14.25" cy="14.5" r="14" fill="#EDD4B2"/>
    <path d="M20.1266 16.6894C19.2695 16.6894 18.4279 16.5553 17.6304 16.2918C17.2396 16.1585 16.7592 16.2808 16.5207 16.5257L14.9465 17.7141C13.1209 16.7396 11.9964 15.6154 11.0352 13.8035L12.1886 12.2704C12.4882 11.9711 12.5957 11.534 12.4669 11.1238C12.2022 10.3221 12.0678 9.48093 12.0678 8.62343C12.0678 8.00396 11.5639 7.5 10.9444 7.5H8.37339C7.75396 7.5 7.25 8.00396 7.25 8.62339C7.25 15.7237 13.0264 21.5 20.1266 21.5C20.7461 21.5 21.25 20.996 21.25 20.3766V17.8127C21.25 17.1934 20.746 16.6894 20.1266 16.6894Z" fill="white"/>
</svg>
